<svg id="Capa_1" enable-background="new 0 0 510 510" height="512" viewBox="0 0 510 510" width="512" xmlns="http://www.w3.org/2000/svg"><g><path d="m241 67.5h30v45h-30z"/><path d="m391 67.5h30v45h-30z"/><path d="m316 37.5h30v75h-30z"/><g><path d="m510 472.5h-510v-60h510z"/></g><g><path d="m50 303.378c-29.285 11.892-50 40.619-50 74.122v5h50z"/><path d="m135 267.5h-20.522c-19.011 0-34.478 15.467-34.478 34.478v80.522h55z"/><path d="m214.995 232.5h-37.78c-6.735 0-12.214 5.479-12.214 12.214v137.786h60v-139.994c-.001-5.518-4.489-10.006-10.006-10.006z"/><path d="m479.473 186.973h-29.473v-44.473h-240v60h4.995c20.363 0 37.209 15.296 39.681 35h20.847c24.95 0 46.62 14.255 57.335 35.039 53.566 1.358 92.142 40.872 92.142 94.961v15h13.751c7.1-10.648 11.249-23.424 11.249-37.154v-7.846h29.473c16.833 0 30.527-13.694 30.527-30.527v-89.473c0-16.833-13.694-30.527-30.527-30.527zm.527 120c0 .291-.236.527-.527.527h-29.473v-90.527h29.473c.291 0 .527.236.527.527z"/><path d="m340 303.103v79.397h55v-15c0-35.442-21.708-60.283-55-64.397z"/><path d="m275.522 267.5h-20.522v115h55v-80.522c0-19.011-15.467-34.478-34.478-34.478z"/></g></g></svg>