<svg id="Capa_1" enable-background="new 0 0 512 512" height="512" viewBox="0 0 512 512" width="512" xmlns="http://www.w3.org/2000/svg"><path d="m30 253c-16.569 0-30 13.431-30 30v209c0 11.046 8.954 20 20 20h85v-259zm40 125c0 8.284-6.716 15-15 15s-15-6.716-15-15v-66c0-8.284 6.716-15 15-15s15 6.716 15 15z"/><path d="m482 253h-75v259h85c11.046 0 20-8.954 20-20v-209c0-16.569-13.431-30-30-30zm-10 125c0 8.284-6.716 15-15 15s-15-6.716-15-15v-66c0-8.284 6.716-15 15-15s15 6.716 15 15z"/><path d="m377 512v-472c0-22.091-17.909-40-40-40h-162c-22.091 0-40 17.909-40 40v472h51v-99c0-22.056 17.944-40 40-40h60c22.056 0 40 17.944 40 40v99zm-181-180c-8.284 0-15-6.716-15-15v-242c0-8.284 6.716-15 15-15s15 6.716 15 15v242c0 8.284-6.716 15-15 15zm60 0c-8.284 0-15-6.716-15-15v-242c0-8.284 6.716-15 15-15s15 6.716 15 15v242c0 8.284-6.716 15-15 15zm60 0c-8.284 0-15-6.716-15-15v-242c0-8.284 6.716-15 15-15s15 6.716 15 15v242c0 8.284-6.716 15-15 15z"/><path d="m296 413c0-5.523-4.477-10-10-10h-60c-5.523 0-10 4.477-10 10v99h80z"/></svg>