<?xml version="1.0" encoding="utf-8"?>
<!-- Generator: Adobe Illustrator 25.2.1, SVG Export Plug-In . SVG Version: 6.00 Build 0)  -->
<svg version="1.1" id="Livello_1" xmlns="http://www.w3.org/2000/svg" xmlns:xlink="http://www.w3.org/1999/xlink" x="0px" y="0px"
	 viewBox="0 0 34.136 32" style="enable-background:new 0 0 34.136 32;" xml:space="preserve">
<style type="text/css">
	.st0{fill:#242426;}
	.st1{fill:#248A3D;}
</style>
<g>
	<path class="st0" d="M15.624,6.4c1.0985,0,1.989,0.8905,1.989,1.989s-0.8905,1.989-1.989,1.989s-1.989-0.8905-1.989-1.989l0,0
		c-0.0044-1.0941,0.8789-1.9846,1.973-1.989C15.6133,6.4,15.6187,6.4,15.624,6.4z M22.585,12.035
		c-1.463,0.2204-2.9405,0.3314-4.42,0.332c-0.221,0-0.442,0.331-0.442,0.552v4.53l2.432,7.851
		c0.149,0.3964-0.0478,0.8391-0.442,0.994c-0.0884,0.0849-0.2104,0.1253-0.332,0.11c-0.2926,0.009-0.5587-0.1685-0.663-0.442
		l-2.652-6.192c-0.11-0.442-0.663-0.442-0.884,0l-2.652,6.188c-0.1172,0.2629-0.3752,0.4349-0.663,0.442
		c-0.11,0-0.221-0.11-0.331-0.11c-0.442-0.11-0.552-0.552-0.442-0.994l2.431-7.846v-4.531c0.0276-0.2737-0.1689-0.5191-0.442-0.552
		c-1.437-0.111-2.983-0.111-4.42-0.332C8.252,11.9476,7.9688,11.57,8,11.151c0.0874-0.411,0.465-0.6942,0.884-0.663
		c2.2396,0.2244,4.4892,0.3348,6.74,0.331c2.2508,0.0038,4.5004-0.1066,6.74-0.331c0.442,0,0.884,0.221,0.884,0.663
		s-0.22,0.884-0.662,0.884H22.585z M27.2303,25.919c-0.2048,0.2314-0.4033,0.4672-0.6237,0.6876C23.7735,29.4398,20.0067,31,16,31
		s-7.7735-1.5602-10.6066-4.3934S1,20.0067,1,16S2.5602,8.2265,5.3934,5.3934S11.9933,1,16,1s7.7735,1.5602,10.6066,4.3934
		c2.7596,2.7596,4.2996,6.4074,4.3783,10.2976c0.3473,0.0876,0.6843,0.2099,1.0122,0.366C31.9972,16.0378,32,16.0192,32,16
		c0-8.8365-7.1635-16-16-16S0,7.1635,0,16s7.1635,16,16,16c4.9136,0,9.305-2.2195,12.24-5.7054
		C27.8932,26.2038,27.5573,26.0784,27.2303,25.919z"/>
	<path class="st1" d="M32.818,17.8178c-1.7574-1.7574-4.6066-1.7574-6.364,0c-1.7574,1.7573-1.7574,4.6066,0,6.364
		c1.7573,1.7573,4.6066,1.7573,6.364,0C34.5754,22.4243,34.5754,19.5751,32.818,17.8178z M32.2031,19.7568l-2.876,3.1592
		c-0.0928,0.1006-0.2217,0.1602-0.3584,0.1631c-0.0039,0-0.0078,0-0.0117,0c-0.1328,0-0.2598-0.0527-0.3535-0.1465l-1.5098-1.5098
		c-0.1953-0.1953-0.1953-0.5117,0-0.707s0.5117-0.1953,0.707,0l1.1396,1.1396l2.5225-2.7725
		c0.1865-0.2031,0.5029-0.2178,0.707-0.0332C32.374,19.2363,32.3887,19.5527,32.2031,19.7568z"/>
</g>
</svg>
