<svg height="511pt" viewBox="1 -50 511.99836 511" width="511pt" xmlns="http://www.w3.org/2000/svg"><path d="m377.804688.5c-49.878907 0-96.355469 59.875-119.898438 153.257812-36.757812-9.320312-76.53125-14.445312-114.984375-14.445312-44.011719 0-81.066406 14.832031-107.152344 42.882812-23.0625 24.8125-35.769531 58.070313-35.769531 93.636719 0 63.363281 41.976562 131.546875 134.15625 131.546875 1.324219 0 2.640625.074219 3.945312.148438 1.617188.082031 3.226563.167968 4.820313.167968 51.914063 0 106.257813-9.3125 152.285156-25.746093 24.152344 18.792969 54.488281 28.707031 85.121094 28.707031 19.914063 0 39.921875-4.148438 58.359375-12.652344 46.390625-21.414062 72.996094-65.695312 72.996094-121.460937 0-1.324219.074218-2.636719.148437-3.941407.082031-1.621093.167969-3.230468.167969-4.820312-.011719-126.421875-55.117188-267.28125-134.195312-267.28125zm-238.730469 388.546875c-1.628907-.089844-3.277344-.175781-4.917969-.175781-79.453125 0-115.648438-58.597656-115.648438-113.039063 0-30.882812 10.949219-59.664062 30.816407-81.03125 22.496093-24.191406 54.859375-36.980469 93.597656-36.980469 39.589844 0 78.492187 5.394532 113.363281 14.605469l5.820313 1.617188c9.382812 2.609375 18.34375 5.488281 26.894531 8.5625 1.535156.554687 3.042969 1.128906 4.550781 1.699219 1.964844.742187 3.898438 1.492187 5.8125 2.25 2.332031.9375 4.664063 1.859374 6.941407 2.832031.148437.066406.296874.128906.453124.195312 29.214844 12.503907 52.796876 27.894531 67.640626 44.6875.527343.601563 1.082031 1.203125 1.589843 1.816407.988281 1.171874 1.914063 2.359374 2.824219 3.550781.765625 1.019531 1.5 2.046875 2.199219 3.074219.667969.960937 1.351562 1.933593 1.953125 2.90625 1.230468 1.988281 2.371094 3.988281 3.351562 5.996093.25.507813.425782 1.015625.65625 1.527344.757813 1.671875 1.445313 3.347656 2.015625 5.03125.242188.703125.445313 1.417969.660157 2.121094.460937 1.566406.839843 3.128906 1.136718 4.703125.128906.65625.269532 1.304687.371094 1.960937.324219 2.183594.535156 4.367188.535156 6.550781 0 1.953126-.144531 3.90625-.40625 5.867188-.089844.714844-.269531 1.417969-.398437 2.128906-.222657 1.222656-.445313 2.441406-.757813 3.675782-.242187.933593-.566406 1.859374-.859375 2.785156-.316406.960937-.621093 1.921875-.992187 2.894531-.433594 1.109375-.925782 2.222656-1.433594 3.324219-.332031.730468-.675781 1.453125-1.035156 2.183594-.667969 1.304687-1.382813 2.597656-2.148438 3.894531-.269531.445312-.539062.886719-.816406 1.332031-.96875 1.542969-1.980469 3.082031-3.097656 4.609375-.046875.054687-.09375.109375-.128906.175781-14.113282 19.183594-39.757813 36.828125-72.425782 50.871094-.3125.136719-.617187.273438-.933594.40625-1.714843.730469-3.492187 1.425781-5.238281 2.136719-1.988281.804687-3.980469 1.613281-6.035156 2.386719-43.355469 16.59375-97.046875 27.015624-152.054687 27.015624-1.273438-.019531-2.5625-.082031-3.855469-.148437zm354.277343-117.425781c-.089843 1.628906-.175781 3.277344-.175781 4.914062 0 48.25-22.679687 86.398438-62.253906 104.664063-37.097656 17.113281-81.5 13.902343-115.214844-7.292969 55.414063-23.800781 94.476563-58.773438 94.476563-100.40625 0-2.824219-.230469-5.601562-.582032-8.355469-.039062-.308593-.113281-.613281-.15625-.917969-6.628906-46.769531-62.738281-84.261718-133.800781-105.554687 21.0625-83.90625 61.578125-139.664063 102.140625-139.664063 59.457032 0 115.679688 120.890626 115.679688 248.765626.019531 1.273437-.058594 2.5625-.113282 3.847656zm0 0"/><path d="m80.964844 191.941406c-24.421875 17.21875-39.292969 45.105469-40.808594 76.503906-.242188 5.109376 3.691406 9.449219 8.800781 9.6875.144531.011719.296875.011719.453125.011719 4.90625 0 8.996094-3.859375 9.234375-8.8125 1.242188-25.652343 13.261719-48.351562 32.984375-62.261719 4.171875-2.941406 5.179688-8.714843 2.226563-12.898437-2.949219-4.175781-8.71875-5.164063-12.890625-2.230469zm0 0"/><path d="m145.0625 173.148438c-11.847656 0-23.117188 1.480468-33.503906 4.402343-4.921875 1.378907-7.789063 6.496094-6.402344 11.410157 1.148438 4.082031 4.859375 6.746093 8.902344 6.746093.832031 0 1.683594-.109375 2.507812-.339843 8.753906-2.472657 18.34375-3.710938 28.496094-3.710938 5.117188 0 9.253906-4.136719 9.253906-9.253906-.003906-5.121094-4.140625-9.253906-9.253906-9.253906zm0 0"/><path d="m418.253906 98.121094c8.503906 12.835937 15.261719 27.578125 20.082032 43.816406 1.195312 4.027344 4.878906 6.628906 8.875 6.628906.871093 0 1.75-.121094 2.628906-.378906 4.894531-1.453125 7.699218-6.609375 6.246094-11.503906-5.339844-18.011719-12.890626-34.425782-22.414063-48.789063-2.832031-4.257812-8.558594-5.445312-12.824219-2.59375-4.25 2.816407-5.417968 8.554688-2.59375 12.820313zm0 0"/><path d="m376.277344 38.054688c-4.792969-1.695313-10.058594.800781-11.78125 5.585937-1.730469 4.804687.757812 10.097656 5.550781 11.839844.113281.042969 11.253906 4.199219 24.859375 15.925781 1.75 1.507812 3.90625 2.25 6.042969 2.25 2.59375 0 5.183593-1.082031 7.003906-3.210938 3.34375-3.878906 2.90625-9.71875-.960937-13.050781-16.4375-14.167969-30.132813-19.128906-30.714844-19.339843zm0 0"/></svg>