<?xml version="1.0" encoding="iso-8859-1"?>
<!-- Generator: Adobe Illustrator 19.0.0, SVG Export Plug-In . SVG Version: 6.00 Build 0)  -->
<svg version="1.1" id="Capa_1" xmlns="http://www.w3.org/2000/svg" xmlns:xlink="http://www.w3.org/1999/xlink" x="0px" y="0px"
	 viewBox="0 0 469.333 469.333" style="enable-background:new 0 0 469.333 469.333;fill: #2d2926" xml:space="preserve">
<g>
	<g>
		<g>
			<path d="M234.66,170.667c-35.292,0-64,28.708-64,64s28.708,64,64,64c35.292,0,64-28.708,64-64S269.952,170.667,234.66,170.667z
				 M234.66,277.333c-23.521,0-42.667-19.135-42.667-42.667S211.139,192,234.66,192c23.521,0,42.667,19.135,42.667,42.667
				S258.181,277.333,234.66,277.333z"/>
			<path d="M127.993,277.333c-35.292,0-64,28.708-64,64s28.708,64,64,64c35.292,0,64-28.708,64-64S163.285,277.333,127.993,277.333z
				 M127.993,384c-23.521,0-42.667-19.135-42.667-42.667s19.146-42.667,42.667-42.667c23.521,0,42.667,19.135,42.667,42.667
				S151.514,384,127.993,384z"/>
			<path d="M469.306,125.301c-0.667-31.989-20.999-93.998-21.874-96.622c-1.063-3.208-3.583-5.729-6.792-6.791
				c-2.625-0.865-64.581-21.166-96.56-21.843C289.665-1.384,240.291,32.48,221.334,83.645
				c-5.271,14.218-16.979,25.676-32.145,31.458c-34.082,13-61.102,40.009-74.081,74.092c-5.792,15.166-17.25,26.885-31.478,32.155
				C32.506,240.287-1.098,289.598,0.027,344.045c0.667,32.01,21.229,93.81,22.104,96.425c1.062,3.177,3.562,5.667,6.75,6.729
				c2.604,0.875,64.373,21.427,96.372,22.104c0.917,0.021,1.813,0.031,2.729,0.031c53.353,0,101.372-33.332,120.017-83.633
				c5.271-14.218,16.979-25.676,32.145-31.458c34.082-13,61.102-40.009,74.081-74.092c5.792-15.166,17.25-26.885,31.478-32.155
				C436.828,229.058,470.431,179.747,469.306,125.301z M378.285,227.99c-19.979,7.396-36.021,23.635-43.979,44.552
				c-10.833,28.417-33.354,50.927-61.75,61.76c-20.917,7.969-37.167,24-44.563,43.979c-15.812,42.646-56.833,71.198-102.292,69.688
				c-23.875-0.5-69.729-14.49-85-19.354c-4.854-15.271-18.854-61.125-19.354-85.021c-0.938-45.365,27.063-86.458,69.688-102.25
				c19.979-7.396,36.021-23.635,43.979-44.552c10.833-28.417,33.354-50.927,61.75-61.76c20.917-7.969,37.167-24,44.562-43.979
				C257.139,48.417,298.618,20,343.618,21.365c23.875,0.5,69.833,14.312,85.208,19.135c4.813,15.375,18.646,61.344,19.146,85.24
				C448.91,171.104,420.91,212.198,378.285,227.99z"/>
			<path d="M341.327,64c-35.292,0-64,28.708-64,64c0,35.292,28.708,64,64,64s64-28.708,64-64C405.327,92.708,376.618,64,341.327,64z
				 M341.327,170.667c-23.521,0-42.667-19.135-42.667-42.667s19.146-42.667,42.667-42.667s42.667,19.135,42.667,42.667
				S364.848,170.667,341.327,170.667z"/>
		</g>
	</g>
</g>
<g>
</g>
<g>
</g>
<g>
</g>
<g>
</g>
<g>
</g>
<g>
</g>
<g>
</g>
<g>
</g>
<g>
</g>
<g>
</g>
<g>
</g>
<g>
</g>
<g>
</g>
<g>
</g>
<g>
</g>
</svg>
