<svg height="600pt" viewBox="0 -25 600 600" width="600pt" xmlns="http://www.w3.org/2000/svg"><path d="m507.710938 308.070312c.367187-.027343.691406-.25.859374-.578124 6.214844-10.871094 6.976563-24.019532 2.070313-35.539063-4.90625-11.515625-14.929687-20.070313-27.070313-23.117187l-93.570312-23.375-93.539062 23.375c-12.144532 3.046874-22.164063 11.601562-27.070313 23.117187-4.90625 11.519531-4.140625 24.667969 2.070313 35.539063.164062.328124.492187.550781.859374.578124.367188.050782.734376-.070312 1-.332031l29.65625-29.65625c3.90625-3.90625 10.234376-3.90625 14.140626 0l32.101562 32.097657c.464844.449218 1.203125.449218 1.660156 0l32.097656-32.097657c3.90625-3.90625 10.234376-3.90625 14.140626 0l32.101562 32.097657c.464844.449218 1.203125.449218 1.660156 0l32.097656-32.097657c3.90625-3.90625 10.234376-3.90625 14.140626 0l29.664062 29.65625c.242188.25.585938.371094.929688.332031zm0 0"/><path d="m448.742188 383.53125c-.492188.449219-1.0625.769531-1.585938 1.179688l6.535156 10.488281c1.660156 2.902343 4.664063 4.777343 7.996094 5 3.28125.292969 6.492188-1.113281 8.492188-3.730469l14.351562-18.699219c-4.292969-4.488281-10.0625-11.300781-14.742188-16.996093-6.789062 7.738281-16.039062 18.195312-21.046874 22.757812zm0 0"/><path d="m510.371094 327.890625c-.835938.074219-1.675782.085937-2.511719.046875l-23.726563 18.773438c5.796876 7.070312 13.195313 15.847656 16.707032 19.128906 1.480468 1.285156 3.433594 1.890625 5.378906 1.667968 3.082031-.316406 5.898438-1.890624 7.78125-4.359374 8.015625-10.730469 8.601562-25.296876 1.46875-36.640626-1.632812.679688-3.34375 1.144532-5.097656 1.382813zm0 0"/><path d="m411.109375 320.398438-21.109375-21.105469-21.109375 21.105469 21.109375 13zm0 0"/><path d="m397.796875 399.378906 12.574219-16.726562c-5.210938-4.933594-13.941406-14.753906-20.371094-22.152344-6.296875 7.257812-14.808594 16.820312-20.046875 21.828125l12.546875 17.460937c2.050781 2.039063 4.847656 3.144532 7.738281 3.066407 2.890625-.074219 5.621094-1.332031 7.558594-3.476563zm0 0"/><path d="m470 299.292969-21.109375 21.105469 20.402344 12.5625 19.1875-15.191407zm0 0"/><path d="m436.410156 425.039062 7.070313-11.789062c-2.707031-2.121094-5.023438-4.699219-6.847657-7.621094l-8.382812-13.480468-14.640625 19.472656c-.960937 1.113281-2.003906 2.160156-3.109375 3.128906l9.128906 11.414062c2.105469 2.59375 5.339844 4.023438 8.683594 3.816407 3.351562-.199219 6.382812-2.050781 8.097656-4.941407zm0 0"/><path d="m344.742188 368.757812c3.046874 2.523438 7.460937 2.523438 10.507812 0 4.089844-3.71875 12.710938-13.398437 19.53125-21.238281l-24.78125-15.25-24.78125 15.25c6.78125 7.839844 15.441406 17.519531 19.523438 21.238281zm0 0"/><path d="m366.570312 411.878906-15.367187-21.371094c-.273437 0-.554687.074219-.820313.082032l-14.59375 18.332031c-1.65625 2.019531-3.570312 3.8125-5.703124 5.335937l11.914062 14.890626c2.007812 2.328124 4.929688 3.664062 8 3.664062s5.992188-1.335938 8-3.664062l11.484375-14.359376c-1.042969-.898437-2.015625-1.867187-2.914063-2.910156zm0 0"/><path d="m374.808594 460.210938c3.402344 4.789062 8.957031 7.585937 14.832031 7.46875 6.15625.21875 12.019531-2.636719 15.636719-7.621094 1.839844-2.589844 5.304687-7.996094 8.632812-13.410156-3.832031-1.9375-7.210937-4.660157-9.910156-7.996094l-12.550781-15.703125c-.488281 0-1 .171875-1.449219.171875s-.878906-.132813-1.328125-.152344l-15 18.652344c-1.851563 2.238281-4.015625 4.195312-6.421875 5.808594 2.820312 5.0625 5.929688 10.390624 7.558594 12.78125zm0 0"/><path d="m311.601562 362.347656c-2.9375 5.117188-6.148437 10.074219-9.609374 14.855469-1.527344 1.875-3.3125 3.53125-5.304688 4.90625l7.320312 13.652344c1.710938 2.605469 4.554688 4.246093 7.671876 4.410156 3.28125.296875 6.488281-1.113281 8.492187-3.730469l10.617187-13.359375c-4.730468-4.410156-12.789062-13.402343-19.1875-20.734375zm0 0"/><path d="m331.109375 320.410156-21.109375-21.117187-15.601562 15.59375 17.160156 17.554687zm0 0"/><path d="m430 332.269531-24.78125 15.25c6.820312 7.839844 15.441406 17.519531 19.523438 21.238281 3.046874 2.523438 7.460937 2.523438 10.507812 0 4.089844-3.71875 12.710938-13.398437 19.53125-21.238281zm0 0"/><path d="m226.8125 277.75-24.8125 11.8125c5.210938 9.148438 12.109375 20.945312 15.492188 25.523438 2.503906 3.0625 6.820312 3.929687 10.304687 2.0625 3.644531-2.1875 11.621094-8.207032 18.0625-13.179688zm0 0"/><path d="m100.230469 236.757812 13.386719 20.5625 21.515624-8.007812-16.554687-24.800781zm0 0"/><path d="m164.808594 405.25c5.652344 1.132812 11.496094-.507812 15.734375-4.410156 2.316406-2.1875 6.804687-6.929688 11.128906-11.582032-3.382813-2.609374-6.167969-5.90625-8.171875-9.679687l-9.242188-17.820313c-.488281-.070312-.996093-.046874-1.46875-.148437-.46875-.101563-.839843-.300781-1.28125-.398437l-18.398437 15.347656c-2.59375 2.15625-5.523437 3.871094-8.671875 5.074218 2.273438 5 4.664062 10.179688 6 12.917969 2.828125 5.640625 8.160156 9.609375 14.371094 10.699219zm0 0"/><path d="m131.640625 363.453125c3.050781.640625 6.226563-.175781 8.589844-2.210937l14.082031-11.832032c-.84375-1.089844-1.609375-2.238281-2.289062-3.429687l-11.925782-24.082031h-.15625l-17.433594 15.113281c-2.054687 1.675781-4.320312 3.074219-6.734374 4.167969l8.765624 17c1.445313 2.742187 4.058594 4.679687 7.101563 5.273437zm0 0"/><path d="m214.484375 261.46875-16.863281-21.6875-25.464844 16.976562 17.722656 16.441407zm0 0"/><path d="m238.148438 334.28125c-4.25 2.535156-9.117188 3.859375-14.066407 3.828125-1.800781-.03125-3.589843-.234375-5.351562-.601563l-20.730469 17.644532c-1.085938.871094-2.226562 1.679687-3.421875 2.394531l6.664063 12.863281c1.515624 2.996094 4.429687 5.039063 7.765624 5.449219 3.328126.425781 6.652344-.789063 8.914063-3.273437l25-24.597657c-.882813-5.601562-.84375-11.308593.109375-16.898437-1.867188 1.238281-3.574219 2.402344-4.882812 3.191406zm0 0"/><path d="m269.628906 327.890625c-1.546875-.214844-3.070312-.59375-4.542968-1.140625-5.519532 12.164062-2.902344 26.484375 6.5625 35.910156l1.28125 1.28125c2.265624 2.148438 5.289062 3.316406 8.40625 3.238282 1.9375-.027344 3.757812-.886719 5-2.359376 2.292968-2.910156 7.214843-11 11.285156-18.082031l-19.203125-19.589843c-2.839844.863281-5.839844 1.117187-8.789063.742187zm0 0"/><path d="m124.058594 274.78125c5.152344 9 11.730468 20.21875 15 24.667969 2.527344 3.035156 6.84375 3.871093 10.320312 2 4.714844-2.851563 15.070313-10.660157 23.292969-17l-21.414063-19.839844zm0 0"/><path d="m185.046875 300.152344c-7.816406 6.050781-18.546875 14.148437-24.515625 17.890625l9.335938 18.875c1.402343 2.632812 3.917968 4.488281 6.84375 5.050781 2.976562.59375 6.0625-.195312 8.386718-2.148438l15.902344-13.472656c-4.140625-5.726562-11-17.476562-15.953125-26.195312zm0 0"/><path d="m298.636719 209.007812-87.15625-41.25-96.300781 4.628907c-12.503907.613281-24 7.035156-31.070313 17.371093-7.0625 10.324219-8.890625 23.367188-4.929687 35.242188.101562.355469.375.632812.734374.75.335938.101562.703126.050781.992188-.140625l34.882812-23.289063c2.210938-1.476562 4.914063-2.011718 7.515626-1.496093 2.601562.523437 4.894531 2.058593 6.363281 4.261719l25.199219 37.773437 1.613281.320313 37.777343-25.203126c4.367188-2.898437 10.230469-1.945312 13.441407 2.195313l30.191406 38.847656c.058594.089844.160156.128907.230469.21875l10 13.699219c5.253906-21.496094 22.042968-38.273438 43.550781-43.507812l23.40625-5.859376c-3.984375-6.3125-9.6875-11.367187-16.441406-14.5625zm0 0"/><path d="m95.476562 299.351562c-2.054687 1.679688-4.363281 3.03125-6.839843 4l5 14.089844c1.105469 3.082032 3.648437 5.429688 6.808593 6.285156 3.15625.851563 6.539063.109376 9.046876-2l12.929687-11.183593c-3.75-5.273438-9.84375-15.574219-14.644531-23.921875-3.867188 4.457031-7.972656 8.710937-12.300782 12.730468zm0 0"/><path d="m69 242.570312c-7.648438 10.945313-7.820312 25.457032-.429688 36.578126l1 1.5c1.761719 2.589843 4.515626 4.335937 7.609376 4.820312 1.886718.332031 3.828124-.160156 5.328124-1.347656 2.8125-2.402344 9.230469-9.410156 14.601563-15.503906l-15-22.996094c-2.964844.285156-5.957031-.054688-8.78125-1.003906-1.511719-.515626-2.96875-1.203126-4.328125-2.046876zm0 0"/><path d="m597.070312 22.222656-14.140624-14.140625-32.929688 32.929688v-35.859375h-20v55.859375l-20 20v-35.859375h-20v55.859375l-20 20v-35.859375h-20v55.859375l-20 20v-35.859375h-20v55.859375l-20 20-20-20v-55.859375h-20v35.859375l-20-20v-55.859375h-20v35.859375l-20-20v-55.859375h-20v35.859375l-32.929688-32.929688c-1.875-1.875-4.417968-2.929687-7.070312-2.929687h-4.339844l-27.089844-45.152344-17.140624 10.296875 20.910156 34.855469h-36.679688l-27.089844-45.152344-17.140624 10.296875 20.910156 34.855469h-36.679688l-27.089844-45.152344-17.140624 10.296875 20.910156 34.855469h-36.679688l-27.089844-45.152344-17.140624 10.296875 20.910156 34.855469h-22.339844v20h22.339844l-20.910156 34.847656 17.140624 10.296875 27.089844-45.144531h36.679688l-20.910156 34.847656 17.140624 10.296875 27.089844-45.144531h36.679688l-20.910156 34.847656 17.140624 10.296875 27.089844-45.144531h36.679688l-20.910156 34.847656 17.140624 10.296875 27.089844-45.144531h.199219l30 30h-35.859375v20h55.859375l20 20h-35.859375v20h55.859375l67.070313 67.070312c3.90625 3.902344 10.234374 3.902344 14.140624 0l27.070313-27.070312h55.859375v-20h-35.859375l20-20h55.859375v-20h-35.859375l20-20h55.859375v-20h-35.859375l20-20h55.859375v-20h-35.859375zm0 0"/><path d="m211.9375 478.949219-23.367188-38.949219-17.140624 10.296875 20.910156 34.855469h-26.679688l-27.089844-45.152344-17.140624 10.296875 20.910156 34.855469h-36.679688l-27.089844-45.152344-17.140624 10.296875 20.910156 34.855469h-36.679688l-27.089844-45.152344-17.140624 10.296875 20.910156 34.855469h-22.339844v20h22.339844l-20.910156 34.847656 17.140624 10.296875 27.089844-45.144531h36.679688l-20.910156 34.847656 17.140624 10.296875 27.089844-45.144531h36.679688l-20.910156 34.847656 17.140624 10.296875 27.089844-45.144531h26.679688l-20.910156 34.847656 17.140624 10.296875 29.390626-48.976563 22.039062-22.351562v36.183594h20v-56.460938l45.867188-46.523437-14.234376-14.039063zm0 0"/></svg>