<?xml version="1.0"?>
<svg xmlns="http://www.w3.org/2000/svg" width="512" height="512" viewBox="0 0 128 128"><g><path d="M127.586,68.453c-.966-1.14-22.372-26.034-50.4-29.662a24.759,24.759,0,0,0-20.9-11.624H37.667a1.75,1.75,0,0,0-1.75,1.75V37.19a16.224,16.224,0,0,0,3.513,10.1,101.438,101.438,0,0,0-14.923,10.4A25.1,25.1,0,0,0,4.125,47.349H1.75A1.749,1.749,0,0,0,0,49.1v5.869a19.43,19.43,0,0,0,7.715,15.5A19.431,19.431,0,0,0,0,85.963v5.869a1.75,1.75,0,0,0,1.75,1.75H4.125A25.249,25.249,0,0,0,25.28,82.109c10.8,8.84,26.952,18.724,45.178,18.724,31.266,0,56.086-28.888,57.128-30.118A1.752,1.752,0,0,0,127.586,68.453ZM39.417,37.19V30.667H56.288A21.247,21.247,0,0,1,72.6,38.4c-.712-.029-1.424-.061-2.143-.061-10.112,0-19.58,3.032-27.875,7.263A12.748,12.748,0,0,1,39.417,37.19ZM25.959,78.118a1.77,1.77,0,0,0-2.673.5A21.767,21.767,0,0,1,4.125,90.082H3.5V85.963A15.935,15.935,0,0,1,11.768,72a1.766,1.766,0,0,0,0-3.067A15.937,15.937,0,0,1,3.5,54.968V50.849h.625A21.659,21.659,0,0,1,22.658,61.211a1.77,1.77,0,0,0,2.633.406c10.457-9.024,26.781-19.782,45.167-19.782a56.05,56.05,0,0,1,22.933,5.322,39.755,39.755,0,0,0,0,44.853,56.039,56.039,0,0,1-22.934,5.323C52.379,97.333,36.28,86.883,25.959,78.118ZM96.589,90.47a36.226,36.226,0,0,1,0-41.772A103.664,103.664,0,0,1,123.9,69.584,103.643,103.643,0,0,1,96.589,90.47Z"/><path d="M82.255,50.171a1.75,1.75,0,0,0-2.275.975,49.072,49.072,0,0,0-3.088,11.908L54.261,57.346a1.765,1.765,0,0,0-2.009,2.447L56.9,69.584l-4.647,9.791a1.766,1.766,0,0,0,2.009,2.448l22.631-5.709A49.072,49.072,0,0,0,79.98,88.022a1.75,1.75,0,1,0,3.25-1.3,46.577,46.577,0,0,1,0-34.278A1.75,1.75,0,0,0,82.255,50.171ZM57.007,77.521l3.411-7.187a1.746,1.746,0,0,0,0-1.5l-3.411-7.185L76.56,66.58c-.058,1-.1,2-.1,3s.04,2.007.1,3Z"/><path d="M101,58.709H99.25a1.75,1.75,0,0,0,0,3.5H101a1.75,1.75,0,0,0,0-3.5Z"/></g></svg>
