<?xml version="1.0" encoding="iso-8859-1"?>
<!-- Generator: Adobe Illustrator 19.0.0, SVG Export Plug-In . SVG Version: 6.00 Build 0)  -->
<svg version="1.1" id="Capa_1" xmlns="http://www.w3.org/2000/svg" xmlns:xlink="http://www.w3.org/1999/xlink" x="0px" y="0px"
	 viewBox="0 0 469.333 469.333" style="enable-background:new 0 0 469.333 469.333;fill: #2d2926" xml:space="preserve">
<g>
	<g>
		<path d="M469.306,125.301c-0.667-31.989-20.999-93.998-21.874-96.622c-1.063-3.208-3.583-5.729-6.792-6.791
			c-2.625-0.865-64.581-21.166-96.56-21.843C289.665-1.384,240.291,32.48,221.334,83.645c-5.271,14.218-16.979,25.676-32.145,31.458
			c-34.082,13-61.102,40.009-74.081,74.092c-5.792,15.166-17.25,26.885-31.478,32.155C32.506,240.287-1.098,289.598,0.027,344.045
			c0.667,32.01,21.229,93.81,22.104,96.425c1.062,3.177,3.562,5.667,6.75,6.729c2.604,0.875,64.373,21.427,96.372,22.104
			c0.917,0.021,1.813,0.031,2.729,0.031c53.353,0,101.372-33.332,120.017-83.633c5.271-14.218,16.979-25.676,32.145-31.458
			c34.082-13,61.102-40.009,74.081-74.092c5.792-15.166,17.25-26.885,31.478-32.155
			C436.828,229.058,470.431,179.747,469.306,125.301z M128.007,405.333c-35.292,0-64-28.708-64-64s28.708-64,64-64s64,28.708,64,64
			S163.298,405.333,128.007,405.333z M234.673,298.667c-35.292,0-64-28.708-64-64s28.708-64,64-64c35.292,0,64,28.708,64,64
			S269.965,298.667,234.673,298.667z M341.34,192c-35.292,0-64-28.708-64-64c0-35.292,28.708-64,64-64s64,28.708,64,64
			C405.34,163.292,376.632,192,341.34,192z"/>
	</g>
</g>
<g>
</g>
<g>
</g>
<g>
</g>
<g>
</g>
<g>
</g>
<g>
</g>
<g>
</g>
<g>
</g>
<g>
</g>
<g>
</g>
<g>
</g>
<g>
</g>
<g>
</g>
<g>
</g>
<g>
</g>
</svg>
