<?xml version="1.0" encoding="iso-8859-1"?>
<!-- Generator: Adobe Illustrator 18.0.0, SVG Export Plug-In . SVG Version: 6.00 Build 0)  -->
<!DOCTYPE svg PUBLIC "-//W3C//DTD SVG 1.1//EN" "http://www.w3.org/Graphics/SVG/1.1/DTD/svg11.dtd">
<svg version="1.1" id="Capa_1" xmlns="http://www.w3.org/2000/svg" xmlns:xlink="http://www.w3.org/1999/xlink" x="0px" y="0px"
	 viewBox="0 0 512 512" style="enable-background:new 0 0 512 512;fill: #2d2926" xml:space="preserve">
<g>
	<path d="M368,296.125c0,21-8.951,41.659-23.34,56.084l54.836,89.795c53.785-30.983,93.48-83.879,107.172-145.879H368z"/>
	<path d="M318.156,222.001c19.244,7.873,34.723,23.124,43.063,42.124h149.98c0.377-6,0.801-10.725,0.801-16.125
		c0-92.486-56.348-172.042-136.512-206.186L318.156,222.001z"/>
	<path d="M317.897,369.669c-8.656,3.503-17.967,5.734-27.807,5.994L214.273,360.5c-12.039-2.414-24.289,2.25-31.703,11.953
		c-7.422,9.711-8.656,22.805-3.195,33.734l8.852,17.688l-8.852,17.688c-5.461,10.93-4.227,24.023,3.195,33.734
		c6.125,8.016,15.57,12.578,25.43,12.578c2.078,0,4.188-0.203,6.273-0.625l77.941-15.589c27.621-0.518,53.932-6.271,78.266-15.946
		L317.897,369.669z"/>
	<path d="M345.133,31.788c-18.277-4.833-37.359-7.663-57.133-7.663H32c-17.672,0-32,14.328-32,32c0,88.227,71.773,160,160,160
		h126.48L345.133,31.788z M80,103.875c-8.836,0-16-7.164-16-16c0-8.837,7.164-16,16-16s16,7.163,16,16
		C96,96.711,88.836,103.875,80,103.875z"/>
</g>
<g>
</g>
<g>
</g>
<g>
</g>
<g>
</g>
<g>
</g>
<g>
</g>
<g>
</g>
<g>
</g>
<g>
</g>
<g>
</g>
<g>
</g>
<g>
</g>
<g>
</g>
<g>
</g>
<g>
</g>
</svg>
