<?xml version="1.0" encoding="iso-8859-1"?>
<!-- Generator: Adobe Illustrator 19.0.0, SVG Export Plug-In . SVG Version: 6.00 Build 0)  -->
<svg version="1.1" id="Layer_1" xmlns="http://www.w3.org/2000/svg" xmlns:xlink="http://www.w3.org/1999/xlink" x="0px" y="0px"
	 viewBox="0 0 512.001 512.001" style="enable-background:new 0 0 512.001 512.001;fill: #2d2926" xml:space="preserve">
<g>
	<g>
		<path d="M468.403,168.59c-26.83-43.821-57.005-76.243-107.984-76.243c-50.992,0-81.166,32.422-107.996,76.243
			c-34.696,56.653-48.813,124.887-41.885,178.69c13.965,108.41,102.284,129.854,149.881,129.854
			c47.598,0,135.903-21.444,149.87-129.854C517.214,293.477,503.098,225.244,468.403,168.59z"/>
	</g>
</g>
<g>
	<g>
		<path d="M226.837,152.926c10.721-17.51,21.108-31.759,31.729-43.448c-26.58-42.988-56.631-74.612-106.973-74.612
			c-50.992,0-81.166,32.422-107.996,76.243C8.902,167.762-5.215,235.995,1.712,289.798
			c13.965,108.41,102.284,129.854,149.881,129.854c13.359,0,29.928-1.71,47.156-6.536c-8.996-18.441-15.03-39.212-17.966-62.005
			c-3.924-30.476-1.907-64.621,5.831-98.742C194.57,217.288,208.48,182.9,226.837,152.926z"/>
	</g>
</g>
<g>
</g>
<g>
</g>
<g>
</g>
<g>
</g>
<g>
</g>
<g>
</g>
<g>
</g>
<g>
</g>
<g>
</g>
<g>
</g>
<g>
</g>
<g>
</g>
<g>
</g>
<g>
</g>
<g>
</g>
</svg>
