<?xml version="1.0" encoding="iso-8859-1"?>
<!-- Generator: Adobe Illustrator 16.0.0, SVG Export Plug-In . SVG Version: 6.00 Build 0)  -->
<!DOCTYPE svg PUBLIC "-//W3C//DTD SVG 1.1//EN" "http://www.w3.org/Graphics/SVG/1.1/DTD/svg11.dtd">
<svg version="1.1" id="Capa_1" xmlns="http://www.w3.org/2000/svg" xmlns:xlink="http://www.w3.org/1999/xlink" x="0px" y="0px"
	 width="45.719px" height="45.719px" viewBox="0 0 45.719 45.719" style="enable-background:new 0 0 45.719 45.719;fill: #2d2926"
	 xml:space="preserve">
<g>
	<g>
		<path d="M19.739,42.866c0.13-3.062-0.355-5.606-0.898-7.433c-2.29,3.291-4.462,5.726-6.357,7.515
			c1.278,0.935,2.852,1.485,4.556,1.485c0.993,0,1.943-0.188,2.815-0.529C19.764,43.572,19.724,43.223,19.739,42.866z"/>
		<path d="M44.68,14.111c-0.104-1.129-1.104-1.955-2.232-1.853c-5.68,0.524-9.939-1.028-12.664-4.629
			c-2.082-2.75-2.52-5.758-2.531-5.84c-0.145-1.12-1.172-1.914-2.289-1.773c-1.125,0.141-1.921,1.167-1.781,2.291
			c0.01,0.081,0.584,4.229,3.523,8.015c-0.007,0.015-0.015,0.028-0.021,0.043l-3.592,7.24c0.245,0.58,0.716,1.057,1.348,1.313
			l0.165,0.067c0.294,0.125,0.604,0.188,0.924,0.188c0.635,0,1.231-0.247,1.696-0.711c0.014-0.013,2.566-5.13,2.566-5.13
			c2.49,1.821,5.896,3.13,10.537,3.13c0.795,0,1.629-0.038,2.499-0.12C43.956,16.239,44.786,15.239,44.68,14.111z"/>
		<path d="M34.721,30.543c-1.815,0-3.449-1.101-4.133-2.779c-0.023-0.06-0.047-0.115-0.072-0.174
			c-0.704-1.66-0.329-3.582,0.945-4.855l0.016-0.018c0.775-0.774,0.775-2.03,0-2.803c-0.387-0.387-0.893-0.581-1.4-0.581
			c-0.507,0-1.014,0.194-1.4,0.581l-0.018,0.016c-0.846,0.848-1.979,1.297-3.131,1.297c-0.582,0-1.168-0.115-1.726-0.352
			c-0.057-0.023-0.114-0.047-0.171-0.07c-1.68-0.684-2.781-2.318-2.781-4.134c0-1.095-0.89-1.981-1.984-1.981
			c-1.095,0-1.984,0.887-1.984,1.981c0,1.815-1.101,3.45-2.781,4.134c-0.063,0.025-0.125,0.051-0.187,0.078
			c-0.555,0.236-1.139,0.351-1.719,0.351c-1.143,0-2.267-0.445-3.108-1.286l-0.033-0.033c-0.386-0.387-0.893-0.581-1.4-0.581
			s-1.014,0.194-1.401,0.581c-0.774,0.772-0.774,2.028,0,2.803c1.284,1.285,1.197,4.095,0.818,5.123
			c-0.464,1.256-2.245,2.502-4.059,2.502H3.011c-1.094,0-1.981,1.088-1.981,2.182c0,1.095,0.887,2.182,1.981,2.182h0.002
			c1.813,0,3.527,0.973,4.131,2.684c0.354,1.004,0.393,3.69-0.891,4.976c-0.433,0.433-0.465,1.124-0.073,1.595
			c0.232,0.278,0.568,0.426,0.908,0.426c0.233,0,0.469-0.068,0.673-0.211c2.763-1.906,6.695-5.519,10.945-12.248
			c0.107-0.168,0.293-0.271,0.492-0.271c0.012,0,0.023,0,0.035,0c0.212,0.013,0.4,0.14,0.491,0.331
			c0.801,1.686,2.293,5.596,2.065,10.97c-0.02,0.455,0.194,0.89,0.566,1.15c0.229,0.161,0.5,0.276,0.771,0.249
			c0.529-0.057,1.466-0.571,2.396-0.52c1.158,0.065,2.302,0.452,3.156,1.307c0.387,0.385,0.893,0.576,1.4,0.576
			s1.014-0.192,1.4-0.58c0.775-0.772,0.775-2.028,0-2.803l-0.033-0.033c-1.266-1.267-1.561-3.561-0.775-5.172
			c0.58-1.193,2.237-2.428,4.051-2.428l0,0c1.095,0,1.981-0.984,1.981-2.08C36.703,31.53,35.817,30.543,34.721,30.543z"/>
	</g>
</g>
<g>
</g>
<g>
</g>
<g>
</g>
<g>
</g>
<g>
</g>
<g>
</g>
<g>
</g>
<g>
</g>
<g>
</g>
<g>
</g>
<g>
</g>
<g>
</g>
<g>
</g>
<g>
</g>
<g>
</g>
</svg>
