<svg height="448pt" viewBox="0 -64 448 448" width="448pt" xmlns="http://www.w3.org/2000/svg"><path d="m272 216c0-55.496094-59.40625-120-136-120s-136 64.503906-136 120c0 51.824219 8.425781 82.519531 52.847656 96.367188 14.953125 4.65625 63.007813 7.632812 83.152344 7.632812s68.183594-2.96875 83.136719-7.625c44.4375-13.847656 52.863281-44.550781 52.863281-96.375zm-87.503906-28c-2.210938 3.824219-7.101563 5.136719-10.929688 2.929688l-34.636718-20-20 34.636718c-1.421876 2.496094-4.066407 4.042969-6.9375 4.046875-2.871094.007813-5.527344-1.527343-6.957032-4.015625-1.429687-2.488281-1.414062-5.554687.035156-8.03125l20-34.636718-34.636718-20c-2.496094-1.421876-4.042969-4.066407-4.046875-6.9375-.007813-2.871094 1.527343-5.527344 4.015625-6.957032 2.488281-1.429687 5.554687-1.414062 8.03125.035156l34.636718 20 20-34.636718c2.226563-3.796875 7.09375-5.082032 10.902344-2.882813s5.128906 7.058594 2.957032 10.882813l-20 34.636718 34.636718 20c3.828125 2.210938 5.136719 7.101563 2.929688 10.929688zm0 0"/><path d="m448 120c0-55.496094-59.40625-120-136-120-56.808594.21875-107.921875 34.558594-129.601562 87.070312 62.714843 19.625 105.601562 76.785157 105.601562 128.929688 0 2.398438 0 4.800781-.054688 7.199219 10.246094.570312 18.878907.800781 24.054688.800781 20.191406 0 68.28125-2.976562 83.121094-7.632812 44.453125-13.816407 52.878906-44.527344 52.878906-96.367188zm-87.503906-28c-2.210938 3.824219-7.101563 5.136719-10.929688 2.929688l-34.636718-20-20 34.636718c-2.226563 3.796875-7.09375 5.082032-10.902344 2.882813s-5.128906-7.058594-2.957032-10.882813l20-34.636718-34.636718-20c-2.496094-1.421876-4.042969-4.066407-4.046875-6.9375-.007813-2.871094 1.527343-5.527344 4.015625-6.957032 2.488281-1.429687 5.554687-1.414062 8.03125.035156l34.636718 20 20-34.636718c2.226563-3.796875 7.09375-5.082032 10.902344-2.882813s5.128906 7.058594 2.957032 10.882813l-20 34.636718 34.636718 20c3.828125 2.210938 5.136719 7.101563 2.929688 10.929688zm0 0"/></svg>