<svg height="511pt" viewBox="1 -62 511.99999 511" width="511pt" xmlns="http://www.w3.org/2000/svg"><path d="m374.171875 233.695312-39.972656 35.488282h130.03125v-35.488282zm0 0"/><path d="m182.851562 233.699219 39.976563 35.484375 33.082031 29.367187 33.082032-29.367187 39.972656-35.484375zm0 0"/><path d="m20.757812 169.816406h470.292969v33.867188h-470.292969zm0 0"/><path d="m137.640625 233.695312h-90.0625v35.488282h130.042969zm0 0"/><path d="m511.773438 139.804688c-1.582032-77.082032-64.769532-139.304688-142.222657-139.304688h-227.289062c-77.457031 0-140.644531 62.222656-142.2265628 139.304688zm-105.074219-61.570313h29.621093v29.617187h-29.621093zm-50.515625-39.015625h29.617187v29.621094h-29.617187zm-57.023438 29.011719h29.621094v29.617187h-29.621094zm-52.878906-31.511719h29.617188v29.617188h-29.617188zm-42.519531 41.515625h29.621093v29.617187h-29.621093zm-65.023438-39.015625h29.621094v29.621094h-29.621094zm-56.910156 39.015625h29.617187v29.617187h-29.617187zm0 0"/><path d="m300.386719 299.191406-44.476563 39.484375-44.488281-39.484375h-211.421875v32.527344c0 30.886719 25.128906 56.019531 56.019531 56.019531h399.960938c30.890625 0 56.019531-25.132812 56.019531-56.019531v-32.527344zm0 0"/></svg>