<?xml version="1.0" encoding="utf-8"?>
<!-- Generator: Adobe Illustrator 22.0.0, SVG Export Plug-In . SVG Version: 6.00 Build 0)  -->
<svg version="1.1" id="Layer_1" xmlns="http://www.w3.org/2000/svg" xmlns:xlink="http://www.w3.org/1999/xlink" x="0px" y="0px"
	 viewBox="0 0 300 300" style="enable-background:new 0 0 300 300;" xml:space="preserve">
<style type="text/css">
	.st0{fill:#2D2A26;}
	.st1{fill:none;stroke:#FFFFFF;stroke-width:2.7892;stroke-miterlimit:10;}
	.st2{clip-path:url(#SVGID_2_);}
	.st3{fill:#FFFFFF;}
	.st4{fill:#2D2A26;stroke:#FFFFFF;stroke-width:2;stroke-miterlimit:10;}
	.st5{fill:#2D2A26;stroke:#FFFFFF;stroke-miterlimit:10;}
</style>
<path class="st0" d="M190.3,135.9v6.1c0,1.4-1.2,2.6-2.6,2.6h-4.5h-1.1H181h-75.7h-1.1h-1.1h-4.5c-1.4,0-2.6-1.2-2.6-2.6v-6.1
	c0-1.4,1.2-2.6,2.6-2.6h1.2h86.6h1.2C189.2,133.3,190.3,134.5,190.3,135.9z M184.3,126.1c0-3.5-2.8-6.3-6.3-6.3h-69.7
	c-3.5,0-6.3,2.8-6.3,6.3v5.1h82.2V126.1z M111.7,244.5h60.1l12.5-97.1h-82.2L111.7,244.5z M167.9,102.7l-4.8-3.9
	c-0.7,1-1.3,2.2-1.8,3.3l5.5,2.9C167.1,104.2,167.5,103.4,167.9,102.7z M203.9,82.6l-2.7-5.5l-27.7,13.8l3,5.4L203.9,82.6z
	 M173.3,97.8l1.2-0.6l-3-5.4l-0.9,0.5c-0.7,0.3-1.3,0.7-1.9,1.1l4.1,4.8C172.9,98.1,173.1,97.9,173.3,97.8z M170.9,99.4l-4-4.7
	c-0.9,0.7-1.7,1.5-2.5,2.4l4.8,3.9C169.7,100.4,170.3,99.9,170.9,99.4z M166,107.1l-5.5-2.9c-1.2,3.5-2.8,7.9-4.5,12.8h6.5
	C163.9,113,165.1,109.6,166,107.1z"/>
</svg>
