<?xml version="1.0" encoding="utf-8"?>
<!-- Generator: Adobe Illustrator 22.0.0, SVG Export Plug-In . SVG Version: 6.00 Build 0)  -->
<svg version="1.1" id="Layer_1" xmlns="http://www.w3.org/2000/svg" xmlns:xlink="http://www.w3.org/1999/xlink" x="0px" y="0px"
	 viewBox="0 0 300 300" style="enable-background:new 0 0 300 300;" xml:space="preserve">
<style type="text/css">
	.st0{fill:#FFFFFF;}
	.st1{fill:#2D2A26;}
	.st2{fill:none;stroke:#FFFFFF;stroke-width:2.7892;stroke-miterlimit:10;}
	.st3{clip-path:url(#SVGID_2_);}
	.st4{fill:#2D2A26;stroke:#FFFFFF;stroke-width:2;stroke-miterlimit:10;}
</style>
<g>
	<g>
		<path class="st1" d="M105.2,159.6c17.2,8.1,35.1,8.3,46,1.7l-76.6-36C76.5,137.9,88.1,151.5,105.2,159.6z"/>
		<path class="st1" d="M226.9,154.6c-3.2-3.9-7.1-6.5-10.3-8.1c0,0-0.1,0-0.1-0.1c-0.9-0.5-0.8-1.9,0.3-2.1c2.4-0.5,5.7-2.2,7.8-8
			c3.3-8.9-7-15.3-7.5-20.6c0-0.3,0-0.7,0-1c0,0,0-0.1,0-0.1c0,0,0-0.1,0-0.1c0.1-0.8,0.5-1.5,1.1-2l10.3-9c0,0-11.3,0.1-15.4,0
			c-0.4,0-0.7-0.2-0.9-0.5c-1.8-2.8-6.6-3.7-6.6-3.7l-39.4-8.9c-1.3-0.3-2.2,1.1-1.5,2.2c1.6,2.5,4,4.8,7.1,6.8
			c1.2,0.8,0.7,2.6-0.8,2.7l-6,0.2c-1.3,0-1.9,1.6-0.9,2.5c2.5,2.3,5.8,4.1,9.7,5.2c1.4,0.4,1.3,2.5-0.1,2.8l-4.4,1
			c-1.3,0.3-1.6,2-0.4,2.7c4.6,2.7,11.4,3.6,18.6,2c1.6-0.3,3.1-0.8,4.5-1.3c1.1-0.4,2.2,0.6,1.9,1.8c-0.4,1.3-0.9,2.8-1.5,4.4
			c0,0,0,0,0,0c-0.4,1.3-0.8,2.5-1.2,3.7c-5.3,14.5-17.7,42.4-36.8,49.5c-2.4,0.6-4.8,1-7.2,1.3c-0.9,0.1-1.7,0.2-2.6,0.3
			c-18.2-0.2-42.7-9.4-59.2-16.6l-17.8-8.4c2.4,15.9,16,33,36.5,44.4L78.8,190c3.8,12.5,16.6,24.6,34.3,31.2l-13.6,0.1
			c5,4.8,25.8,23.9,56.6,23.6c32.6-0.3,62.1-22.2,72.3-49.2c2.8-7.5,3.7-14.2,4-18.9l0-6.3C232.5,164.8,230.6,159.1,226.9,154.6z"/>
		<path class="st1" d="M128.6,139.6l-39.8-39.3c-1.6,8.3,2.6,19.3,11.6,28.2C109.3,137.2,120.4,141.3,128.6,139.6z"/>
	</g>
</g>
</svg>
