<?xml version="1.0" encoding="utf-8"?>
<!-- Generator: Adobe Illustrator 22.0.0, SVG Export Plug-In . SVG Version: 6.00 Build 0)  -->
<svg version="1.1" id="Layer_1" xmlns="http://www.w3.org/2000/svg" xmlns:xlink="http://www.w3.org/1999/xlink" x="0px" y="0px"
	 viewBox="0 0 300 300" style="enable-background:new 0 0 300 300;" xml:space="preserve">
<style type="text/css">
	.st0{fill:#FFFFFF;}
	.st1{fill:#2D2A26;}
	.st2{fill:none;stroke:#FFFFFF;stroke-width:2.7892;stroke-miterlimit:10;}
	.st3{clip-path:url(#SVGID_2_);}
	.st4{fill:#2D2A26;stroke:#FFFFFF;stroke-width:2;stroke-miterlimit:10;}
</style>
<g>
	<path class="st0" d="M168.1,230.3c0,1.4-1,1.9-2,1.5c-2-0.9-4.1-1.8-6-3c-9-5.4-15.6-12.8-18.8-23c-0.9-3-1.4-6-1.5-9.1
		c0-0.2,0-0.4,0-0.6c0.1-0.9,0.6-1.5,1.4-1.4c0.8,0.1,1.2,0.6,1.3,1.4c0.1,1.8,0.2,3.6,0.5,5.4c1.7,9.3,6.8,16.5,14.2,22.3
		c3,2.3,6.3,4.1,9.8,5.6C167.5,229.6,167.9,230.1,168.1,230.3z"/>
	<path class="st0" d="M142.2,221.4c0.2-2.3,0.6-4.5,1.6-6.6c2.2-4.7,1.4-9-2.3-12.5c-2.9-2.8-4.4-6.3-4.8-10.3
		c-0.6-6.8,4.8-11.9,11.5-11.1c6.5,0.7,11.6,3.9,15.7,8.8c5,5.9,7.6,12.7,7.1,20.5c-0.6,8.4-4.5,15.1-10.8,20.6
		c-1.2,1-2.5,2-3.8,2.8c-4.8,3.1-11.3,0.7-12.9-4.8C142.9,226.4,142.7,223.9,142.2,221.4z M168.5,210c0-9.9-4.4-18.3-11.4-23.1
		c-3.3-2.3-6.9-3.5-11-3.4c-4,0.1-7.2,3.8-6.8,7.7c0.3,3.7,1.6,6.9,4.4,9.5c4.1,3.9,5.1,9.7,2.7,14.9c-0.4,0.9-0.8,1.9-1,3
		c-0.8,3.5-0.1,6.8,1,10.1c0.8,2.4,2.8,3.6,5.3,3.6c1,0,2.3-0.2,3.1-0.7C163.2,226.2,168.2,218.7,168.5,210z"/>
	<path class="st0" d="M136.8,208.2c0.3-9.3,4.4-16.8,11.5-22.7c3.2-2.6,6.9-4.1,11-4.5c5.6-0.6,11,3.6,11.6,9.3
		c0.5,4.6-0.9,8.6-4.3,11.8c-4,3.9-4.8,8-2.4,13c1.5,3.3,1.8,6.6,0.9,10.1c-0.4,1.7-0.7,3.4-1.6,4.9c-2.7,4.6-8.7,6-13.1,2.9
		c-7.4-5.1-12.2-11.9-13.5-21c-0.1-0.7-0.1-1.4-0.2-2.1C136.9,209.3,136.8,208.8,136.8,208.2z M139.4,207.9
		c0.4,10.2,4.9,17.5,12.8,22.8c3.9,2.7,9.1,0.3,10.1-4.4c0.2-1,0.3-1.9,0.5-2.9c0.6-2.7,0.1-5.3-1.1-7.8c-2.6-5.3-1.5-11.2,2.7-15.2
		c2.2-2.1,3.6-4.6,4-7.7c0.6-4.3-2.4-8.5-6.6-9.2c-3.1-0.5-6.1,0.3-8.8,1.9C144.4,190.7,140,198.4,139.4,207.9z"/>
	<g>
		<path class="st1" d="M192.3,170.9c-1,0.1-1.8,0.1-2.6,0.3c-2.6,0.6-5.3,1-7.9,1.9c-2.7,0.9-5.3,0.7-7.9-0.2
			c-5.9-2.1-12-2.6-18.2-1.2c-4.4,1-8.3,3.1-11.8,6c-7,5.9-11.9,13.1-13.8,22.1c-2.7,12.8,0.8,24.1,9.4,33.8
			c3.4,3.8,7.4,6.9,11.8,9.4c0.5,0.3,1,0.6,1.5,1.1c-2.1,0.2-4.1,0.5-6.2,0.7c-11.8,0.8-23-1.1-33.7-6.2
			c-10.1-4.9-18.3-11.9-23.8-21.7c-8.9-16-7.3-34.6,4.1-49c3.8-4.8,8.2-9.1,13.7-11.9c8.5-4.2,17.3-4.4,26.2-1.9
			c1.1,0.3,2.1,0.7,3.2,1.1c3.5,1.3,7,1.3,10.5,0c4.9-1.8,10-2.8,15.2-2.6c8.6,0.3,16,3.4,22.2,9.4c1.7,1.6,3.3,3.4,4.9,5.2
			C190.3,168.1,191.2,169.4,192.3,170.9z M123.5,230.3c-0.3-0.2-0.6-0.8-1.2-1c-3.5-1.5-6.8-3.3-9.8-5.6
			c-7.4-5.7-12.5-12.9-14.2-22.3c-0.3-1.8-0.4-3.6-0.5-5.4c-0.1-0.8-0.4-1.4-1.3-1.4c-0.7-0.1-1.3,0.6-1.4,1.4c0,0.2,0,0.4,0,0.6
			c0.1,3.1,0.5,6.1,1.5,9.1c3.2,10.2,9.8,17.6,18.8,23c1.9,1.1,4,2,6,3C122.5,232.3,123.4,231.7,123.5,230.3z"/>
		<path class="st1" d="M180.3,247.1c-12.8,0-23.5-3-32.9-10c-7.5-5.7-12.8-13.1-14.7-22.4c-2.2-10.8,0.4-20.4,7.2-29
			c2.9-3.7,6.2-6.9,10.3-9.1c6.3-3.4,13-3.8,19.9-2.2c2.1,0.5,4.2,1.3,6.3,1.8c1.9,0.5,3.9,0.2,5.7-0.5c4.5-1.7,9.2-2.5,13.9-2.1
			c5,0.4,9.6,2,13.6,5.2c6.1,4.8,10.6,10.7,13,18c4,12.4,1.5,23.6-6.6,33.5c-7.4,9-17.2,13.9-28.5,15.9
			C184.7,246.8,181.9,246.9,180.3,247.1z M185.6,221.4c0.4,2.5,0.7,5,1.4,7.4c1.6,5.5,8.1,7.9,12.9,4.8c1.3-0.9,2.6-1.8,3.8-2.8
			c6.3-5.4,10.2-12.2,10.8-20.6c0.5-7.8-2.1-14.6-7.1-20.5c-4.1-4.9-9.2-8.1-15.7-8.8c-6.8-0.8-12.2,4.3-11.5,11.1
			c0.4,4,1.9,7.5,4.8,10.3c3.7,3.6,4.4,7.9,2.3,12.5C186.2,216.9,185.8,219.1,185.6,221.4z M141.7,208.2c0,0.6,0,1.1,0.1,1.6
			c0.1,0.7,0.1,1.4,0.2,2.1c1.3,9,6.1,15.9,13.5,21c4.4,3,10.4,1.7,13.1-2.9c0.8-1.4,1.1-3.2,1.6-4.9c0.9-3.5,0.6-6.8-0.9-10.1
			c-2.4-5-1.5-9.1,2.4-13c3.3-3.2,4.8-7.2,4.3-11.8c-0.7-5.7-6-9.9-11.6-9.3c-4.1,0.4-7.8,1.9-11,4.5
			C146.1,191.4,142,198.9,141.7,208.2z"/>
		<path class="st1" d="M142.1,147.8c-1.5-1.2-2.9-2.3-4.3-3.6c-0.2-0.2-0.2-0.9,0-1.2c1.8-4.9,4.6-9.2,8.3-12.9
			c9.1-8.8,20-12.1,32.5-9.9c0.1,0,0.3,0.1,0.5,0.1c-1.7,0.6-3.3,1.1-4.9,1.7c-7.6,3-13.4,8-17.8,14.9c-0.3,0.5-0.8,1-1.4,1.2
			C149.8,140.4,145.3,143.8,142.1,147.8z"/>
		<path class="st1" d="M124.6,114.8c1.3-3.4,2.5-6.7,3.8-10c2.7,1,5,2.4,7,4.2c5.2,4.5,8.1,10.4,9.6,17.1c0.2,0.9,0,1.5-0.7,2.2
			c-3.8,3.7-6.7,8.1-8.7,13c-0.1,0.3-0.2,0.5-0.4,0.8c-0.1,0-0.2,0-0.3,0.1c-0.1-0.4-0.3-0.9-0.3-1.3c0.7-4.5,0.9-9-0.3-13.4
			C133,121.9,130.2,117.3,124.6,114.8z"/>
		<path class="st1" d="M105.1,137.9c12.4-2.5,29.1,2.2,36.6,15.4c-0.9-0.1-1.7-0.1-2.4-0.3c-2-0.6-3.9-1.3-5.8-1.8
			c-2.5-0.6-5-0.9-7.5-1.4c-0.5-0.1-1.1-0.3-1.4-0.6c-5-5.9-11.4-9.4-18.8-11.1C105.6,138.1,105.5,138,105.1,137.9z"/>
		<path class="st1" d="M177.8,137.8c-2.7,1-5.6,1.9-8.3,3.2c-4.2,1.9-7.7,4.7-10.7,8.2c-0.3,0.3-0.8,0.6-1.3,0.7
			c-4,0.4-7.9,1.3-11.7,2.7c-0.5,0.2-1.1,0.7-1.5-0.1c-0.3-0.8-1.4-1.4-0.4-2.5c5.4-6.5,12.4-10.3,20.6-11.9
			C168.9,137.1,173.4,137.1,177.8,137.8z"/>
		<path class="st1" d="M211.9,210c-0.4,8.7-5.4,16.2-13.8,21.5c-0.9,0.5-2.1,0.7-3.1,0.7c-2.5,0-4.5-1.3-5.3-3.6
			c-1.1-3.2-1.8-6.6-1-10.1c0.2-1,0.6-2,1-3c2.4-5.2,1.4-10.9-2.7-14.9c-2.7-2.6-4-5.8-4.4-9.5c-0.3-4,2.9-7.6,6.8-7.7
			c4-0.1,7.7,1.1,11,3.4C207.5,191.7,211.9,200.1,211.9,210z M197.3,204.8c1.9-0.7,3.6-1.2,5.3-2c0.3-0.1,0.5-1.1,0.3-1.5
			c-0.2-0.4-1-0.8-1.3-0.7c-1.6,0.4-3.2,0.9-4.7,1.6c-0.4,0.2-0.7,1-0.6,1.4C196.3,204,196.9,204.3,197.3,204.8z M201.7,212.5
			C201.7,212.5,201.7,212.5,201.7,212.5c0.6,0,1.3,0,1.9,0c0.8,0,1.3-0.5,1.3-1.3c0-0.8-0.5-1.3-1.3-1.4c-1.3,0-2.6,0-3.9,0
			c-0.8,0-1.4,0.5-1.4,1.3c0,0.8,0.6,1.3,1.4,1.3C200.4,212.6,201,212.5,201.7,212.5z M197.8,193.3c-0.3-0.3-0.6-0.8-0.9-1
			c-0.4-0.1-1.1,0-1.4,0.3c-0.9,1-1.7,2-2.4,3.1c-0.4,0.6-0.2,1.3,0.4,1.7c0.6,0.4,1.2,0.4,1.6-0.2c0.8-1,1.6-2.1,2.4-3.2
			C197.6,194,197.7,193.7,197.8,193.3z M197.4,217.7c-0.4,0.3-0.9,0.6-1.1,1.1c-0.3,0.6,0,1.3,0.6,1.5c1,0.5,2.1,0.9,3.2,1.2
			c0.4,0.1,1.2-0.3,1.4-0.8c0.2-0.3-0.1-1.3-0.4-1.5C200,218.6,198.8,218.3,197.4,217.7z"/>
		<path class="st1" d="M144.4,207.9c0.5-9.6,5-17.3,13.6-22.4c2.6-1.6,5.6-2.4,8.8-1.9c4.2,0.7,7.2,4.9,6.6,9.2
			c-0.4,3.1-1.7,5.6-4,7.7c-4.3,4-5.3,9.9-2.7,15.2c1.2,2.5,1.7,5.1,1.1,7.8c-0.2,1-0.3,1.9-0.5,2.9c-1,4.7-6.2,7.1-10.1,4.4
			C149.2,225.4,144.7,218.1,144.4,207.9z M159.8,202.9c-0.2-0.2-0.5-0.7-0.9-0.9c-1.4-0.6-2.9-1-4.3-1.5c-0.8-0.2-1.4,0.1-1.6,0.8
			c-0.3,0.8,0.1,1.4,0.8,1.6c1.5,0.5,2.9,1,4.4,1.5C159.1,204.8,159.9,204.1,159.8,202.9z M154.4,209.9c-0.6,0-1.3,0-1.9,0
			c-0.8,0-1.4,0.5-1.4,1.3c0,0.9,0.5,1.3,1.3,1.3c1.3,0,2.6,0,3.9,0c0.8,0,1.4-0.5,1.3-1.3c0-0.9-0.6-1.3-1.4-1.3
			C155.7,209.9,155,209.9,154.4,209.9z M163.2,196.6c-0.1-0.4-0.1-0.6-0.2-0.7c-0.9-1.2-1.7-2.4-2.7-3.4c-0.2-0.3-1.2-0.2-1.5,0.1
			c-0.3,0.3-0.5,1.2-0.3,1.6c0.7,1.1,1.5,2.2,2.4,3.2c0.3,0.3,1,0.4,1.4,0.3C162.7,197.4,162.9,196.9,163.2,196.6z M159.9,219.5
			c0-1.2-0.8-1.8-1.8-1.5c-1,0.3-1.9,0.7-2.8,1.1c-0.7,0.3-1.1,0.9-0.8,1.6c0.3,0.8,0.9,1.1,1.7,0.8c1-0.3,1.9-0.6,2.8-1.1
			C159.4,220.2,159.7,219.7,159.9,219.5z"/>
	</g>
	<path class="st0" d="M151.6,204.8c-0.4-0.4-1-0.8-1-1.2c-0.1-0.4,0.3-1.2,0.6-1.4c1.5-0.6,3.1-1.2,4.7-1.6c0.4-0.1,1.2,0.3,1.3,0.7
		c0.2,0.4,0,1.3-0.3,1.5C155.3,203.5,153.5,204.1,151.6,204.8z"/>
	<path class="st0" d="M154,212.5c-0.6,0-1.3,0-1.9,0c-0.8,0-1.4-0.5-1.4-1.3c0-0.8,0.5-1.3,1.4-1.3c1.3,0,2.6,0,3.9,0
		c0.8,0,1.3,0.5,1.3,1.4c0,0.8-0.5,1.2-1.3,1.3C155.3,212.6,154.7,212.5,154,212.5C154,212.5,154,212.5,154,212.5z"/>
	<path class="st0" d="M156.4,193.3c-0.1,0.4-0.2,0.7-0.3,0.8c-0.8,1.1-1.5,2.1-2.4,3.2c-0.4,0.5-1.1,0.6-1.6,0.2
		c-0.6-0.4-0.8-1.1-0.4-1.7c0.7-1.1,1.5-2.2,2.4-3.1c0.3-0.3,1-0.4,1.4-0.3C155.9,192.5,156.1,193,156.4,193.3z"/>
	<path class="st0" d="M152.5,217.7c1.4,0.6,2.6,1,3.7,1.6c0.3,0.2,0.6,1.1,0.4,1.5c-0.2,0.4-1,0.8-1.4,0.8c-1.1-0.2-2.2-0.7-3.2-1.2
		c-0.6-0.3-0.9-0.9-0.6-1.5C151.6,218.3,152.1,218,152.5,217.7z"/>
	<path class="st0" d="M157.4,202.9c0,1.2-0.8,1.9-1.6,1.6c-1.5-0.4-3-0.9-4.4-1.5c-0.7-0.3-1.1-0.9-0.8-1.6c0.3-0.7,0.9-1.1,1.6-0.8
		c1.5,0.4,2.9,0.9,4.3,1.5C157,202.2,157.3,202.7,157.4,202.9z"/>
	<path class="st0" d="M154,209.9c0.6,0,1.2,0,1.8,0c0.8,0,1.4,0.4,1.4,1.3c0,0.8-0.5,1.3-1.3,1.3c-1.3,0-2.6,0-3.9,0
		c-0.8,0-1.4-0.5-1.3-1.3c0-0.8,0.6-1.3,1.4-1.3C152.7,209.9,153.4,209.9,154,209.9z"/>
	<path class="st0" d="M156.3,196.6c-0.2,0.3-0.5,0.8-0.9,0.9c-0.4,0.1-1.1,0-1.4-0.3c-0.9-1-1.7-2-2.4-3.2c-0.2-0.4,0-1.3,0.3-1.6
		c0.3-0.3,1.3-0.3,1.5-0.1c1,1.1,1.8,2.3,2.7,3.4C156.3,196.1,156.3,196.3,156.3,196.6z"/>
	<path class="st0" d="M156.7,219.5c-0.2,0.2-0.5,0.7-0.9,0.9c-0.9,0.4-1.9,0.8-2.8,1.1c-0.8,0.3-1.4,0-1.7-0.8
		c-0.3-0.8,0.1-1.3,0.8-1.6c0.9-0.4,1.9-0.8,2.8-1.1C155.9,217.6,156.7,218.3,156.7,219.5z"/>
</g>
</svg>
