<?xml version="1.0" encoding="utf-8"?>
<!-- Generator: Adobe Illustrator 22.0.0, SVG Export Plug-In . SVG Version: 6.00 Build 0)  -->
<svg version="1.1" id="Layer_1" xmlns="http://www.w3.org/2000/svg" xmlns:xlink="http://www.w3.org/1999/xlink" x="0px" y="0px"
	 viewBox="0 0 300 300" style="enable-background:new 0 0 300 300;" xml:space="preserve">
<style type="text/css">
	.st0{fill:#FFFFFF;}
	.st1{fill:#2D2A26;}
	.st2{fill:none;stroke:#FFFFFF;stroke-width:2.7892;stroke-miterlimit:10;}
	.st3{clip-path:url(#SVGID_2_);}
	.st4{fill:#2D2A26;stroke:#FFFFFF;stroke-width:2;stroke-miterlimit:10;}
</style>
<rect x="-1.4" y="2.7" class="st0" width="300" height="300"/>
<g>
	<g>
		<g>
			<g>
				<path class="st1" d="M256.9,131.3h-1.2h-86.6h-1.2c-1.4,0-2.6,1.2-2.6,2.6v6.1c0,1.4,1.2,2.6,2.6,2.6h4.5h1.1h1.1h75.7h1.1h1.1
					h4.5c1.4,0,2.6-1.2,2.6-2.6v-6.1C259.5,132.5,258.3,131.3,256.9,131.3z"/>
				<path class="st1" d="M253.5,124.1c0-3.5-2.8-6.3-6.3-6.3h-69.7c-3.5,0-6.3,2.8-6.3,6.3v5.1h82.2V124.1z"/>
			</g>
		</g>
		<polygon class="st1" points="253.5,145.5 171.2,145.5 180.9,242.6 240.9,242.6 		"/>
		<path class="st1" d="M237.1,100.8l-4.8-3.9c-0.7,1-1.3,2.2-1.8,3.3l5.5,2.9C236.2,102.3,236.6,101.5,237.1,100.8z"/>
		<polygon class="st1" points="273.1,80.7 270.3,75.1 242.6,88.9 245.6,94.3 		"/>
		<path class="st1" d="M242.5,95.8l1.2-0.6l-3-5.4l-0.9,0.5c-0.7,0.3-1.3,0.7-1.9,1.1l4.1,4.8C242.1,96.1,242.3,96,242.5,95.8z"/>
		<path class="st1" d="M240,97.4l-4-4.7c-0.9,0.7-1.7,1.5-2.5,2.4l4.8,3.9C238.9,98.4,239.4,97.9,240,97.4z"/>
		<path class="st1" d="M235.1,105.1l-5.5-2.9c-1.2,3.5-2.8,7.9-4.5,12.8h6.5C233.1,111,234.2,107.7,235.1,105.1z"/>
	</g>
	<path class="st1" d="M93,154.9c0.1-0.7,0.4-2.6-0.3-2.6l7.6-8.4c-0.4,0,0.5,0.9,0.2,1.2c-0.3,0.2-0.5,0.6-0.5,0.9l-0.2,1.9
		c0,0-0.1,0-0.1,0l-9.6-0.5c-0.7-0.1-1.4,0.5-1.4,1.3l-0.4,6.6l-2.7,0l-0.1-12.2c0-0.8-0.6-1.4-1.4-1.4l-9.7,0c-0.4,0-0.7,0.1-1,0.4
		c-0.3,0.3-0.4,0.6-0.4,1l0,4.7L63,148.2c-0.4,0-0.7,0.2-0.9,0.5c-0.2,0.3-0.4,0.6-0.3,1l0.8,11.3l-4.2-0.1l0.1-11.1
		c0-0.8-0.6-1.4-1.3-1.4l-9.7-0.2c-0.4,0-0.7,0.1-1,0.4c-0.3,0.3-0.4,0.6-0.4,1l-0.3,28.8c-0.3,0-0.2,0-0.4,0l-3.8-31.8
		c0-0.4-0.2-0.7-0.5-0.9c-0.3-0.2-0.7-0.3-1-0.3l-9.6,1.6c-0.7,0.1-1.2,0.8-1.1,1.5l2.4,20.2h-3.6c-0.4,0-0.8,0.2-1,0.5
		c-0.3,0.3-0.4,0.7-0.3,1.1l9.1,71.1c0.1,0.7,0.7,1.2,1.4,1.2h67.3 M38.5,169.6c-0.2-0.5-0.7-0.7-1.2-0.7h-2.9l-2.3-19.2l6.9-1.2
		l3.2,26.5C40.8,173.2,39.5,171.5,38.5,169.6z M82.7,144.3l0.1,10.9l-0.8,0c-0.4,0-0.7,0.1-1,0.4c-0.3,0.3-0.4,0.6-0.4,1l0.4,29.2
		c-1.6,0.4-3.3,0.7-5,0.9l-0.2-42.4L82.7,144.3z M73.1,150.4l0.2,36.5c-0.8,0-1.6,0.1-2.5,0.1c-1.8,0-3.7-0.1-5.4-0.4l0.3-24.2
		c0-0.4-0.1-0.7-0.4-0.9c0,0,0,0,0,0l-0.7-10.6L73.1,150.4z M56,163.6l6.9,0.1l-0.3,22.4c-2.5-0.5-4.9-1.2-7.1-2.1
		c0.1-0.2,0.2-0.4,0.2-0.6L56,163.6z M53.3,162.2L53,183c-1.6-0.8-3.1-1.6-4.5-2.6l0.3-29.4l6.9,0.1l-0.1,9.8l-1,0
		c-0.4,0-0.7,0.1-1,0.4C53.4,161.5,53.3,161.9,53.3,162.2z M83.7,184.9l-0.3-27l6.9,0l0.3,24.1C88.4,183.2,86.1,184.2,83.7,184.9z
		 M102.6,147.5l6.9,0.7"/>
	<g>
		<path class="st4" d="M215,218.9H88.6c-0.7,0-1.2,0.6-1.2,1.3v9.5c0,8.4,10.5,15.3,23.4,15.3h82c12.9,0,23.4-6.9,23.4-15.3v-9.5
			C216.2,219.5,215.6,218.9,215,218.9z"/>
		<path class="st4" d="M216.3,196.5h-129c-2.9,0-5.2,2.4-5.2,5.2v8.8c0,2.9,2.4,5.2,5.2,5.2h129c2.9,0,5.2-2.4,5.2-5.2v-8.8
			C221.5,198.9,219.2,196.5,216.3,196.5z"/>
		<g>
			<path class="st1" d="M215.9,186.5H87.6c-0.8,0-1.6,0.4-2.1,1c-0.5,0.6-0.7,1.4-0.6,2.2l0.7,3.7c0.2,0.8,0.5,1.2,3.9,3.2
				c1.6,1,3.3,2,3.7,2.2l0.5,0.3c19.1,10.5,21.4,10.5,22.3,10.5c1,0,1.5-0.5,1.7-0.8l0.1-0.2l0.1-0.2c0,0,1.6-4.1,6.6-7.2
				c6.8-4.2,14.8-6.5,23.1-6.5h68.3c1.5,0,2.7-1.2,2.7-2.7v-2.8C218.6,187.7,217.4,186.5,215.9,186.5z"/>
			<path class="st0" d="M215.9,184.9H87.6c-1.3,0-2.5,0.6-3.3,1.6c-0.8,1-1.2,2.3-0.9,3.5l0.7,3.7c0.3,1.6,1.3,2.3,4.6,4.3
				c1.7,1,3.4,2,3.8,2.2c0.1,0.1,0.3,0.2,0.5,0.3c19.5,10.7,21.9,10.7,23,10.7c1.2,0,2.2-0.5,2.9-1.3l0.3-0.3l0.2-0.4
				c0.1-0.2,1.6-3.7,6-6.5c6.6-4.1,14.2-6.2,22.2-6.2h68.3c2.4,0,4.3-1.9,4.3-4.3v-2.8C220.2,186.8,218.2,184.9,215.9,184.9z
				 M217,192c0,0.6-0.5,1.2-1.2,1.2h-68.3c-8.5,0-16.8,2.3-23.9,6.7c-5.5,3.5-7.3,8-7.3,8c-0.1,0.1-0.2,0.1-0.4,0.1
				c-2.9,0-20.2-9.6-22-10.6c-0.8-0.4-6.7-3.8-6.8-4.3l-0.7-3.7c-0.1-0.7,0.4-1.4,1.1-1.4h128.2c0.6,0,1.2,0.5,1.2,1.2V192z"/>
		</g>
		<path class="st4" d="M222.5,178.4c-1.2-2-0.9-4.4-2.5-6.1c-4.4-4.5-6.4,1.6-10.1,2.1c-3.9,0.4-7-2.8-10.7-2.8
			c-2.5,0-3.5,2.9-5.8,2.6c-1.8-0.3-3.4-2.5-5-3.2c-4.6-2.1-7.3,3.3-11.6,2.4c-2.8-0.6-3.9-3.6-7-2.9c-2.4,0.5-3.4,3.2-5.7,4
			c-7.2,2.7-10.9-9.2-15.6,1.5c-4.9-1.4-10.5-6.5-16-4.7c-3.1,1-3.8,4.3-7,3.7c-2.1-0.4-2.9-2.7-4.7-3.3c-3.3-1.2-3.6-1.5-6.2,0.3
			c-10,6.8-8-0.8-13.5-2.2c-1.2-0.3-4.9,4-6.9,5.1c-1.9,1-3.1-2.6-4.6-3c-2.9-1-6.4,1-9.2,3.6c-2.3,2.2-2.4,4.6,0.8,5
			c0,2.6-4.5,4.5-1.8,8.5c4.1,1,5.2-5.3,9.2-4.9c1.6,0.1,3.1,1.8,4.7,1.8c2.8,0,4.1-2.3,6.9-1.8c3,0.5,3.3,3.2,6.9,2.9
			c2.5-0.2,4.1-2.2,6.9-1.9c2.3,0.2,3.3,1.8,5.9,1.6c1.6-0.2,2.9-2.4,4.8-2.6c1.8-0.2,3.5,1.4,5.3,1.5c2.6,0.2,3.2-0.8,5.9-1.5
			c5.7-1.6,9.4,3.1,15.2,2c3.6-0.6,7.5-3.1,11.1-2.2c2,0.5,3.2,2.9,5.5,3.2c2,0.3,4-1.1,5.9-1.4c2.6-0.4,5.3,0.8,7.6,0.4
			c3.3-0.6,4.9-2.1,8.5-2c3.3,0.1,5.8,1.7,9.1,1.5c3.7-0.1,5.3-1.7,8.9-0.5c2.6,0.8,6.3,4.4,9.1-0.5c1.3,4.5,7.7,1.5,8.4-2.4
			C225.8,177.7,223.8,180.6,222.5,178.4z"/>
		<g>
			<path class="st4" d="M151.9,126.4c-35.6,0-64.5,19.2-64.5,42.9h129C216.4,145.7,187.5,126.4,151.9,126.4z"/>
			<path class="st0" d="M100.9,157.5c-0.8,0.7-0.8,3.6,0,4.5c0.9,1,1.8-1.7,1.7-3C102.5,157.4,101.6,156.9,100.9,157.5z"/>
			<path class="st0" d="M106.7,145.5c-1.3-0.3-1.9,0.5-1.6,1.3c0.4,0.9,2.7,1.6,3.6,1C109.7,147.2,107.7,145.8,106.7,145.5z"/>
			<path class="st0" d="M115.9,160c-1-0.7-2-0.3-2,0.6c0,1,1.9,2.5,2.9,2.4C118.1,162.7,116.8,160.7,115.9,160z"/>
			<path class="st0" d="M120.4,143.6c-1.2,0.4-1.4,1.4-0.8,1.9c0.8,0.6,3.1,0.1,3.6-0.8C123.9,143.6,121.4,143.3,120.4,143.6z"/>
			<path class="st0" d="M128.9,135.1c-1,0.3-1.8,2.6-1.3,3.5c0.6,1.1,2.1-0.7,2.5-1.8C130.4,135.6,129.7,134.9,128.9,135.1z"/>
			<path class="st0" d="M123.6,152.3c-1,0.3-1.8,2.6-1.3,3.5c0.6,1.1,2.1-0.7,2.5-1.8C125.2,152.8,124.4,152,123.6,152.3z"/>
			<path class="st0" d="M143.7,138.6c-1-0.9-1.9-0.5-2,0.3c-0.1,1,1.6,2.7,2.6,2.7C145.5,141.5,144.5,139.3,143.7,138.6z"/>
			<path class="st0" d="M151.4,131.5c-1.3,0-1.8,0.9-1.3,1.6c0.6,0.8,3,1,3.7,0.3C154.8,132.5,152.5,131.6,151.4,131.5z"/>
			<path class="st0" d="M162.1,134.8c-0.6,0.9,0.3,3.1,1.2,3.5c1.2,0.5,1.2-1.9,0.7-3C163.6,134.2,162.5,134.2,162.1,134.8z"/>
			<path class="st0" d="M193.7,145.4c-0.9-0.5-3.1,0.6-3.4,1.6c-0.4,1.2,2,1,3,0.4C194.5,146.9,194.4,145.8,193.7,145.4z"/>
			<path class="st0" d="M175.7,134.9c-1.1-0.7-2-0.1-1.9,0.7c0,1,2,2.4,3,2.2C178,137.5,176.6,135.5,175.7,134.9z"/>
			<path class="st0" d="M188.5,156.3c-0.9,0.5-1.1,2.9-0.4,3.7c0.8,1,1.9-1.3,1.9-2.4C190.1,156.4,189.2,155.9,188.5,156.3z"/>
			<path class="st0" d="M179.6,150.2c-1.2,0.5,0.6,2.2,1.6,2.6c1.2,0.5,2-0.2,1.8-1C182.7,150.8,180.5,149.8,179.6,150.2z"/>
			<path class="st0" d="M173.4,159.1c-0.9-0.6-3.1,0.3-3.5,1.2c-0.5,1.2,1.9,1.2,3,0.8C174.1,160.6,174.1,159.5,173.4,159.1z"/>
			<path class="st0" d="M154.9,144.5c-1,0.8-0.8,1.8-0.1,2.1c1,0.3,3-1,3.1-2C158.2,143.3,155.8,143.9,154.9,144.5z"/>
			<path class="st0" d="M171.5,144.9c-1-0.1-2.6,1.8-2.5,2.8c0.1,1.3,2.3,0.1,3-0.8C172.7,145.8,172.3,144.9,171.5,144.9z"/>
			<path class="st0" d="M154.9,157.1c-1,0.3-1.8,2.6-1.3,3.5c0.6,1.1,2.1-0.7,2.5-1.8C156.4,157.6,155.6,156.9,154.9,157.1z"/>
			<path class="st0" d="M138.5,160.9c-1.3,0.1-0.1,2.3,0.7,3c1,0.8,1.9,0.4,2-0.4C141.4,162.4,139.6,160.9,138.5,160.9z"/>
			<path class="st0" d="M134.4,149.2c-0.5,0.9,0.6,3.1,1.6,3.4c1.2,0.4,1-2,0.5-3C135.8,148.5,134.8,148.5,134.4,149.2z"/>
			<path class="st0" d="M144.7,151.3c-0.7,1,1.7,1.5,2.8,1.3c1.3-0.3,1.5-1.3,0.9-1.8C147.6,150.1,145.2,150.5,144.7,151.3z"/>
			<path class="st0" d="M200.1,157.3c0.1,1.3,1.1,1.7,1.7,1.2c0.8-0.6,0.7-3,0-3.7C200.8,153.9,200,156.2,200.1,157.3z"/>
		</g>
	</g>
</g>
<path class="st0" d="M217.2,218.9H86.7c-0.9,0-1.6-0.7-1.6-1.6v-0.6c0-0.9,0.7-1.6,1.6-1.6h130.5c0.9,0,1.6,0.7,1.6,1.6v0.6
	C218.8,218.2,218.1,218.9,217.2,218.9z"/>
</svg>
