<?xml version="1.0" encoding="utf-8"?>
<!-- Generator: Adobe Illustrator 22.0.0, SVG Export Plug-In . SVG Version: 6.00 Build 0)  -->
<svg version="1.1" id="Layer_1" xmlns="http://www.w3.org/2000/svg" xmlns:xlink="http://www.w3.org/1999/xlink" x="0px" y="0px"
	 viewBox="0 0 300 300" style="enable-background:new 0 0 300 300;" xml:space="preserve">
<style type="text/css">
	.st0{fill:#2D2A26;}
	.st1{fill:none;stroke:#FFFFFF;stroke-width:2.7892;stroke-miterlimit:10;}
	.st2{clip-path:url(#SVGID_2_);}
	.st3{fill:#FFFFFF;}
	.st4{fill:#2D2A26;stroke:#FFFFFF;stroke-width:2;stroke-miterlimit:10;}
	.st5{fill:#2D2A26;stroke:#FFFFFF;stroke-miterlimit:10;}
</style>
<g>
	<path class="st0" d="M98,153.4c-1.8,3-3.4,6-8.2,4.3c2.7,30.1,5.3,59.6,7.9,89c6.8,0,13.2,0,19.9,0c-3.2-36.3-6.4-72.5-9.6-108.6
		C104.4,143.2,101.1,148.2,98,153.4z"/>
	<path class="st0" d="M171.9,184.5l-0.1,0.1c0,0,0.1,0,0.1,0L171.9,184.5z"/>
	<path class="st0" d="M91.9,149.7c2.3-3.5,4.4-7,6.6-10.5c1.9-3,3.8-6.1,5.9-9.5c-7.8,0-15,0-22.3,0.1c-0.7,0-1.7,0.7-2.2,1.4
		c-3.9,6-7.6,12.1-11.4,18.2c-0.3,0.5-0.5,1-0.9,1.7c7.6,0,15,0,22.4-0.1C90.7,150.9,91.5,150.2,91.9,149.7z"/>
	<path class="st0" d="M163.5,87c1.2-1.2,2.3-2.3,3.8-3.8c-0.9-0.7-1.8-1.4-2.6-2.1c-2.6-2.6-2.7-6.4-0.2-9.2
		c5.4-6,4.2-14.4-2.5-18.7c-1.2,1.1-2.3,2.2-3.7,3.5c0.8,0.7,1.6,1.4,2.3,2.1c2.9,2.9,2.9,6.5,0.3,9.7c-1.2,1.5-2.3,3.4-2.8,5.2
		C156.5,79.3,159.1,83.5,163.5,87z"/>
	<path class="st0" d="M163.8,122.5c10.7,0,21.4,0,32.2,0c-0.1-1.3-0.1-2.3-0.3-3.4c-0.8-6.5-1.9-12.8-7.5-17.5
		c-3.2-2.7-5.7-4.3-10-3.5c-7.5,1.4-14.5,4-20.8,8.7C162.7,110.7,165.1,115.8,163.8,122.5z"/>
	<path class="st0" d="M150.7,87c1.1-1.1,2.3-2.2,3.7-3.6c-1-0.9-1.9-1.6-2.7-2.4c-2.4-2.5-2.4-6.3-0.2-8.8c5.5-6.3,4.5-14-2.2-18.8
		c-1.2,1.1-2.4,2.2-3.9,3.5c1,0.8,1.9,1.6,2.7,2.4c2.4,2.5,2.4,6.3,0.2,8.8C142.9,74.3,143.9,82.1,150.7,87z"/>
	<path class="st0" d="M138,87c1.1-1.1,2.3-2.2,3.8-3.7c-0.9-0.7-1.8-1.4-2.6-2.2c-2.6-2.6-2.8-6.6-0.2-9.2
		c4.5-4.6,5.3-13.4-2.5-18.7c-1.2,1.1-2.4,2.2-3.9,3.6c0.9,0.7,1.8,1.3,2.5,2.1c2.7,2.8,2.9,6.6,0.2,9.4
		C130.9,72.9,130.2,81.6,138,87z"/>
	<path class="st0" d="M102.6,122.6c17.4,0,34.7,0,52.1,0c1.2,0,1.7-0.5,2-1.6c1.4-4.3-1.8-8.8-6.4-9.1c-1.2-0.1-2.5,0-3.7,0
		c-0.1-7.6-1.1-10.6-10.9-10.9c0-1.2,0-2.3,0-3.5c-0.2-4-3.3-7-7.2-7c-3.8,0-6.9,3.1-7,7.1c0,1.2,0,2.3,0,3.4
		c-9.3,0.7-9.9,1.3-10.8,10.8c-1.4,0-2.6-0.1-3.9,0c-4.5,0.3-7.6,4.8-6.3,9C100.8,122.1,101.4,122.6,102.6,122.6z"/>
	<path class="st0" d="M181.9,199.9c0-0.1,0-0.2,0-0.3c0-0.2,0-0.4,0-0.6c0-0.1,0-0.2,0-0.3c0-0.2,0-0.4-0.1-0.6c0-0.1,0-0.2,0-0.3
		c0-0.2-0.1-0.4-0.1-0.5c0-0.1,0-0.2-0.1-0.3c0-0.2-0.1-0.3-0.1-0.5c0-0.1-0.1-0.2-0.1-0.4c0-0.1-0.1-0.3-0.1-0.4
		c0-0.1-0.1-0.3-0.1-0.4c0-0.1-0.1-0.3-0.1-0.4c-0.1-0.1-0.1-0.3-0.2-0.4c0-0.1-0.1-0.2-0.1-0.3c-0.1-0.2-0.1-0.3-0.2-0.5
		c0-0.1-0.1-0.2-0.1-0.3c-0.1-0.2-0.2-0.3-0.2-0.5c0-0.1-0.1-0.2-0.1-0.3c-0.1-0.2-0.2-0.4-0.3-0.5c0-0.1-0.1-0.2-0.1-0.2
		c-0.1-0.2-0.2-0.4-0.3-0.5c0-0.1-0.1-0.1-0.1-0.2c-0.1-0.2-0.2-0.3-0.3-0.5c-0.1-0.1-0.1-0.2-0.2-0.2c-0.1-0.2-0.2-0.3-0.3-0.5
		c-0.1-0.1-0.1-0.2-0.2-0.3c-0.1-0.1-0.2-0.2-0.3-0.3c-0.1-0.1-0.2-0.2-0.3-0.4c-0.1-0.1-0.1-0.2-0.2-0.2c-0.1-0.1-0.3-0.3-0.4-0.4
		c0,0-0.1-0.1-0.1-0.1c-0.2-0.2-0.3-0.3-0.5-0.5c0,0,0,0,0,0c-0.8-0.8-1.7-1.4-2.7-2c0,0-0.1,0-0.1,0c-0.2-0.1-0.4-0.2-0.6-0.4
		c-0.1-0.1-0.2-0.1-0.4-0.2c-0.1-0.1-0.2-0.1-0.4-0.2c0,0,0,0-0.1,0l-0.4,2.6l-4.7,30.8l-6-11.6l-12.7,1.8c0.1,0.1,0.1,0.3,0.2,0.4
		c0,0.1,0.1,0.2,0.1,0.3c0.1,0.2,0.2,0.4,0.3,0.5c0,0.1,0.1,0.2,0.1,0.2c0.1,0.2,0.2,0.4,0.3,0.5c0,0.1,0.1,0.2,0.1,0.2
		c0.1,0.2,0.2,0.3,0.3,0.5c0.1,0.1,0.1,0.2,0.2,0.3c0.1,0.1,0.2,0.2,0.2,0.3c0.1,0.1,0.2,0.2,0.3,0.4c0.1,0.1,0.1,0.2,0.2,0.2
		c0.1,0.2,0.3,0.3,0.4,0.5c0,0,0.1,0.1,0.1,0.1c0.8,0.8,1.6,1.6,2.5,2.3c0,0,0,0,0,0c0.2,0.2,0.4,0.3,0.6,0.5c0,0,0,0,0.1,0
		c0.2,0.1,0.4,0.3,0.6,0.4c0,0,0,0,0.1,0c0.2,0.1,0.5,0.3,0.7,0.4c0.1,0,0.1,0.1,0.2,0.1c0.1,0.1,0.3,0.2,0.5,0.2
		c0.1,0.1,0.3,0.1,0.4,0.2c0.1,0,0.2,0.1,0.2,0.1c0.2,0.1,0.3,0.1,0.5,0.2c0,0,0.1,0,0.1,0.1c0.4,0.2,0.8,0.3,1.3,0.4l0,0
		c1.7,0.5,3.4,0.8,5.3,0.8c2.5,0,4.9-0.5,7.1-1.5l0,0c0.3-0.1,0.5-0.2,0.8-0.4c0,0,0.1,0,0.1,0c0.2-0.1,0.4-0.2,0.7-0.4
		c0.1,0,0.1-0.1,0.2-0.1c0.2-0.1,0.5-0.3,0.7-0.4c0,0,0,0,0.1,0c0.2-0.2,0.5-0.3,0.7-0.5c0.1,0,0.1-0.1,0.2-0.1
		c3.9-2.8,6.3-6.9,7-11.3c0-0.1,0-0.1,0-0.2c0-0.2,0-0.3,0.1-0.5c0-0.1,0-0.3,0.1-0.4c0-0.1,0-0.3,0-0.4c0-0.2,0-0.3,0-0.5
		c0-0.1,0-0.2,0-0.3c0-0.2,0-0.4,0-0.6c0-0.1,0-0.2,0-0.3C181.9,200.3,181.9,200.1,181.9,199.9z M169.8,205.1l1.1-7.2l10.8,5.5
		L169.8,205.1z"/>
	<path class="st0" d="M128.8,158.1c-1.6,0-2.5-0.5-3.3-1.9c-2-3.4-4.1-6.7-6.2-10c-1.2-1.9-2.3-3.7-3.5-5.6
		c-0.1,0.1-0.2,0.1-0.4,0.2c3.1,35.3,6.2,70.6,9.3,105.9c25.9,0,51.6,0,77.4,0c2.6-29.6,5.2-59,7.9-88.7c-1.1,0-2,0-2.8,0
		C181,158.1,154.9,158.1,128.8,158.1z M185.5,200.9c0,0.2,0,0.5,0,0.7c0,0.1,0,0.3,0,0.4c0,0.2,0,0.4,0,0.6c0,0.2,0,0.3,0,0.5
		c0,0.2,0,0.3-0.1,0.5c0,0.2-0.1,0.4-0.1,0.6c0,0.1,0,0.2,0,0.2c0,0.2-0.1,0.5-0.1,0.7l0,0c-1,4.8-3.7,9.3-7.9,12.5l0,0
		c-0.1,0.1-0.2,0.2-0.4,0.3c-0.1,0-0.1,0.1-0.2,0.1c0,0,0,0-0.1,0c-0.3,0.2-0.6,0.4-0.9,0.6c0,0-0.1,0-0.1,0.1
		c-0.3,0.2-0.5,0.3-0.8,0.5c-0.1,0-0.1,0.1-0.2,0.1c-0.3,0.1-0.5,0.3-0.8,0.4c0,0-0.1,0-0.1,0.1c-2.9,1.4-6.1,2.2-9.5,2.2
		c-2.8,0-5.4-0.5-7.8-1.5c-0.1,0-0.1,0-0.2-0.1c-0.2-0.1-0.4-0.2-0.6-0.3c-0.1,0-0.2-0.1-0.3-0.1c-0.2-0.1-0.3-0.2-0.5-0.2
		c-0.2-0.1-0.4-0.2-0.5-0.3c-0.1,0-0.2-0.1-0.3-0.1c-0.3-0.2-0.6-0.3-0.8-0.5c0,0-0.1,0-0.1,0c-0.3-0.2-0.5-0.3-0.8-0.5
		c0,0-0.1,0-0.1-0.1c-0.3-0.2-0.5-0.4-0.8-0.5c0,0,0,0,0,0c-1.1-0.8-2.1-1.7-3-2.7c0,0-0.1-0.1-0.1-0.1c-0.2-0.2-0.3-0.4-0.5-0.6
		c-0.1-0.1-0.2-0.2-0.2-0.3c-0.1-0.1-0.2-0.3-0.3-0.4c-0.1-0.1-0.2-0.3-0.3-0.4c0-0.1-0.1-0.1-0.1-0.2c0-0.1-0.1-0.1-0.1-0.2
		c-0.1-0.2-0.3-0.4-0.4-0.6c-0.1-0.1-0.1-0.2-0.2-0.3c-0.1-0.2-0.3-0.4-0.4-0.6c-0.1-0.1-0.1-0.2-0.2-0.3c-0.1-0.2-0.2-0.4-0.3-0.6
		c-0.1-0.1-0.1-0.2-0.2-0.3c-0.1-0.2-0.2-0.4-0.3-0.6c-0.1-0.1-0.1-0.2-0.2-0.4c-0.1-0.2-0.2-0.4-0.2-0.6c-0.1-0.1-0.1-0.3-0.2-0.4
		c-0.1-0.2-0.1-0.4-0.2-0.5c-0.1-0.2-0.1-0.3-0.2-0.5c-0.1-0.2-0.1-0.3-0.1-0.5c-0.1-0.2-0.1-0.4-0.2-0.5c0-0.1-0.1-0.3-0.1-0.4
		c0-0.2-0.1-0.4-0.1-0.6c0-0.1-0.1-0.3-0.1-0.4c0-0.2-0.1-0.4-0.1-0.7c0-0.1,0-0.2-0.1-0.4c0-0.2-0.1-0.5-0.1-0.7c0-0.1,0-0.2,0-0.3
		c0-0.2,0-0.5-0.1-0.7c0-0.1,0-0.2,0-0.3c0-0.2,0-0.5,0-0.7c0-0.1,0-0.1,0-0.2c0-0.1,0-0.1,0-0.2c0-0.2,0-0.4,0-0.7
		c0-0.1,0-0.3,0-0.4c0-0.2,0-0.4,0-0.5c0-0.2,0-0.4,0.1-0.6c0-0.1,0-0.2,0-0.4c0-0.2,0.1-0.5,0.1-0.7c0-0.1,0-0.1,0-0.2
		c0.1-0.3,0.1-0.6,0.2-0.9c0,0,0,0,0,0c0.3-1.3,0.7-2.6,1.2-3.9c0,0,0-0.1,0-0.1c0.1-0.3,0.2-0.5,0.4-0.8c0.1-0.1,0.2-0.3,0.2-0.4
		c0.1-0.1,0.1-0.3,0.2-0.4c0.1-0.3,0.3-0.5,0.4-0.8c0,0,0-0.1,0.1-0.1c0.7-1.2,1.5-2.2,2.4-3.3c0,0,0,0,0,0c0.2-0.2,0.4-0.4,0.6-0.6
		c0,0,0.1-0.1,0.1-0.1c0.2-0.2,0.3-0.3,0.5-0.5c0.1-0.1,0.2-0.2,0.3-0.2c0.1-0.1,0.3-0.3,0.4-0.4c0.1-0.1,0.3-0.2,0.4-0.3
		c0.1-0.1,0.2-0.2,0.3-0.3c0.2-0.1,0.4-0.3,0.5-0.4c0,0,0.1-0.1,0.1-0.1c0.1,0,0.1-0.1,0.2-0.1c0.2-0.1,0.4-0.3,0.6-0.4
		c0.1-0.1,0.2-0.1,0.3-0.2c0.2-0.1,0.4-0.3,0.6-0.4c0.1-0.1,0.2-0.1,0.3-0.2c0.2-0.1,0.4-0.2,0.6-0.3c0.1-0.1,0.2-0.1,0.3-0.2
		c0.2-0.1,0.4-0.2,0.6-0.3c0.1-0.1,0.2-0.1,0.4-0.2c0.2-0.1,0.4-0.2,0.6-0.2c0.1-0.1,0.3-0.1,0.4-0.2c0.2-0.1,0.4-0.1,0.5-0.2
		c0.2-0.1,0.3-0.1,0.5-0.2c0.2-0.1,0.3-0.1,0.5-0.1c0.2-0.1,0.4-0.1,0.5-0.2c0.1,0,0.3-0.1,0.4-0.1c0.2,0,0.4-0.1,0.6-0.1
		c0.1,0,0.3-0.1,0.4-0.1c0.2,0,0.4-0.1,0.7-0.1c0.1,0,0.2,0,0.4-0.1c0.2,0,0.5-0.1,0.7-0.1c0.1,0,0.2,0,0.3,0c0.2,0,0.5,0,0.7-0.1
		c0.1,0,0.2,0,0.3,0c0.2,0,0.5,0,0.7,0c0.1,0,0.1,0,0.2,0c0.1,0,0.1,0,0.2,0c0.2,0,0.5,0,0.7,0c0.1,0,0.3,0,0.4,0c0.2,0,0.4,0,0.5,0
		c0.2,0,0.4,0,0.6,0.1c0.1,0,0.2,0,0.4,0c0.2,0,0.5,0.1,0.7,0.1c0.1,0,0.1,0,0.2,0c0.3,0.1,0.6,0.1,0.9,0.2c0,0,0,0,0,0
		c1.3,0.3,2.6,0.7,3.9,1.2c0,0,0.1,0,0.1,0c0.3,0.1,0.5,0.2,0.8,0.4c0.1,0.1,0.3,0.2,0.4,0.2c0.1,0.1,0.3,0.1,0.4,0.2
		c0.3,0.1,0.5,0.3,0.8,0.4c0,0,0.1,0,0.1,0.1c1.2,0.7,2.2,1.5,3.3,2.4c0,0,0,0,0,0c0.2,0.2,0.4,0.4,0.6,0.6c0,0,0.1,0.1,0.1,0.1
		c0.2,0.2,0.3,0.3,0.5,0.5c0.1,0.1,0.2,0.2,0.2,0.3c0.1,0.1,0.3,0.3,0.4,0.4c0.1,0.1,0.2,0.3,0.3,0.4c0.1,0.1,0.2,0.2,0.3,0.3
		c0.1,0.2,0.3,0.4,0.4,0.5c0,0,0.1,0.1,0.1,0.1c0,0.1,0.1,0.1,0.1,0.2c0.1,0.2,0.3,0.4,0.4,0.6c0.1,0.1,0.1,0.2,0.2,0.3
		c0.1,0.2,0.3,0.4,0.4,0.6c0.1,0.1,0.1,0.2,0.2,0.3c0.1,0.2,0.2,0.4,0.3,0.6c0.1,0.1,0.1,0.2,0.2,0.3c0.1,0.2,0.2,0.4,0.3,0.6
		c0.1,0.1,0.1,0.2,0.2,0.4c0.1,0.2,0.2,0.4,0.2,0.6c0.1,0.1,0.1,0.3,0.2,0.4c0.1,0.2,0.1,0.4,0.2,0.5c0.1,0.2,0.1,0.3,0.2,0.5
		c0.1,0.2,0.1,0.3,0.1,0.5c0.1,0.2,0.1,0.4,0.2,0.5c0,0.1,0.1,0.3,0.1,0.4c0,0.2,0.1,0.4,0.1,0.6c0,0.1,0.1,0.3,0.1,0.4
		c0,0.2,0.1,0.4,0.1,0.7c0,0.1,0,0.2,0.1,0.4c0,0.2,0.1,0.5,0.1,0.7c0,0.1,0,0.2,0,0.3c0,0.2,0,0.5,0.1,0.7c0,0.1,0,0.2,0,0.3
		c0,0.2,0,0.5,0,0.7c0,0.1,0,0.1,0,0.2C185.5,200.8,185.5,200.8,185.5,200.9z"/>
	<path class="st0" d="M151.6,188.1C151.6,188.1,151.7,188,151.6,188.1l-0.6-0.5l0.4,0.7c0.1-0.1,0.1-0.1,0.2-0.2
		C151.5,188.2,151.6,188.1,151.6,188.1z"/>
	<path class="st0" d="M231,148.8c-3.6-5.8-7.3-11.5-10.8-17.3c-0.8-1.4-1.7-1.8-3.3-1.8c-25.2,0.1-50.5,0-75.7,0
		c-7.8,0-15.6,0-23.9,0c4.3,6.8,8.3,13.2,12.2,19.6c0.8,1.3,1.6,1.7,3.2,1.7c32.5,0,64.9,0,97.4,0c0.6,0,1.3,0,2.2,0
		C231.7,150,231.4,149.4,231,148.8z"/>
	<path class="st0" d="M162.7,193.6l9.1-9c-0.2-0.1-0.3-0.2-0.5-0.2c0,0-0.1,0-0.1,0c-1-0.4-2.1-0.8-3.2-1c0,0,0,0,0,0
		c-0.2-0.1-0.5-0.1-0.7-0.1c-0.1,0-0.1,0-0.2,0c-0.2,0-0.4-0.1-0.6-0.1c-0.1,0-0.2,0-0.3,0c-0.2,0-0.3,0-0.5,0c-0.1,0-0.3,0-0.4,0
		c-0.1,0-0.2,0-0.4,0c-0.2,0-0.4,0-0.6,0c-0.1,0-0.2,0-0.3,0c-0.2,0-0.4,0-0.6,0c-0.1,0-0.2,0-0.3,0c-0.2,0-0.4,0-0.6,0
		c-0.1,0-0.2,0-0.3,0c-0.2,0-0.4,0-0.6,0.1c-0.1,0-0.2,0-0.3,0c-0.2,0-0.4,0.1-0.6,0.1c-0.1,0-0.2,0-0.3,0.1c-0.2,0-0.3,0.1-0.5,0.1
		c-0.1,0-0.2,0.1-0.4,0.1c-0.2,0-0.3,0.1-0.5,0.1c-0.1,0-0.3,0.1-0.4,0.1c-0.1,0-0.3,0.1-0.4,0.1c-0.1,0.1-0.3,0.1-0.4,0.2
		c-0.1,0-0.2,0.1-0.4,0.1c-0.2,0.1-0.3,0.1-0.5,0.2c-0.1,0-0.2,0.1-0.3,0.1c-0.2,0.1-0.3,0.2-0.5,0.2c-0.1,0-0.2,0.1-0.3,0.1
		c-0.2,0.1-0.4,0.2-0.5,0.3c-0.1,0-0.2,0.1-0.2,0.1c-0.2,0.1-0.4,0.2-0.5,0.3c-0.1,0-0.2,0.1-0.2,0.1c-0.2,0.1-0.3,0.2-0.5,0.3
		c-0.1,0.1-0.2,0.1-0.2,0.2c-0.2,0.1-0.3,0.2-0.4,0.3c-0.1,0.1-0.2,0.2-0.3,0.2c-0.1,0.1-0.2,0.2-0.3,0.3c-0.1,0.1-0.2,0.2-0.4,0.3
		c-0.1,0.1-0.1,0.1-0.2,0.2c-0.1,0.1-0.2,0.2-0.3,0.3l10,5.1l-5.2,5.1l-5.1-9.9c-0.1,0.1-0.2,0.2-0.4,0.4c0,0,0,0,0,0
		c-0.8,0.8-1.4,1.7-2,2.7c0,0,0,0.1,0,0.1c-0.1,0.2-0.2,0.4-0.4,0.6c-0.1,0.1-0.1,0.2-0.2,0.4c-0.1,0.1-0.1,0.2-0.2,0.4
		c-0.1,0.2-0.2,0.4-0.3,0.7c0,0,0,0.1,0,0.1c-0.4,1-0.8,2.1-1,3.2c0,0,0,0,0,0c-0.1,0.2-0.1,0.5-0.1,0.7c0,0.1,0,0.1,0,0.2
		c0,0.2-0.1,0.4-0.1,0.6c0,0.1,0,0.2,0,0.3c0,0.2,0,0.3,0,0.5c0,0.1,0,0.3,0,0.4c0,0.1,0,0.2,0,0.4c0,0.2,0,0.4,0,0.6
		c0,0.1,0,0.2,0,0.3c0,0.2,0,0.4,0,0.6c0,0.1,0,0.2,0,0.3c0,0.2,0,0.4,0,0.6c0,0.1,0,0.2,0,0.3c0,0.2,0,0.4,0.1,0.6
		c0,0.1,0,0.2,0,0.3c0,0.2,0.1,0.4,0.1,0.6c0,0.1,0,0.2,0.1,0.3c0,0.2,0.1,0.3,0.1,0.5c0,0.1,0.1,0.2,0.1,0.4c0,0.2,0.1,0.3,0.1,0.5
		c0,0.1,0.1,0.3,0.1,0.4c0,0.1,0.1,0.3,0.1,0.4c0.1,0.1,0.1,0.3,0.2,0.4c0,0.1,0.1,0.2,0.1,0.4c0.1,0.2,0.1,0.3,0.2,0.5
		c0,0.1,0.1,0.2,0.1,0.3l9-8.9L162.7,193.6z"/>
	<path class="st0" d="M148,208.1l-0.2,0.2l0.3,0C148,208.2,148,208.1,148,208.1C148,208.1,148,208.1,148,208.1z"/>
	<path class="st0" d="M164.2,202c0.7,0,1.2-0.6,1.2-1.2c0-0.7-0.6-1.2-1.2-1.2c-0.7,0-1.2,0.6-1.2,1.2
		C162.9,201.4,163.5,202,164.2,202z"/>
</g>
</svg>
