<?xml version="1.0" encoding="utf-8"?>
<!-- Generator: Adobe Illustrator 22.0.0, SVG Export Plug-In . SVG Version: 6.00 Build 0)  -->
<svg version="1.1" id="Layer_1" xmlns="http://www.w3.org/2000/svg" xmlns:xlink="http://www.w3.org/1999/xlink" x="0px" y="0px"
	 viewBox="0 0 300 300" style="enable-background:new 0 0 300 300;" xml:space="preserve">
<style type="text/css">
	.st0{fill:#FFFFFF;}
	.st1{fill:#2D2A26;}
	.st2{fill:none;stroke:#FFFFFF;stroke-width:2.7892;stroke-miterlimit:10;}
	.st3{clip-path:url(#SVGID_2_);}
	.st4{fill:#2D2A26;stroke:#FFFFFF;stroke-width:2;stroke-miterlimit:10;}
</style>
<g>
	<path class="st1" d="M115.8,140.7c1.2,1.9,2.3,3.7,3.5,5.6c2.1,3.3,4.2,6.6,6.2,10c0.8,1.4,1.7,1.9,3.3,1.9c26.1-0.1,52.2,0,78.4,0
		c0.9,0,1.7,0,2.8,0c-2.6,29.7-5.3,59.1-7.9,88.7c-25.8,0-51.4,0-77.4,0c-3.1-35.3-6.2-70.6-9.3-105.9
		C115.5,140.8,115.7,140.8,115.8,140.7z M164.1,236.2c19.5,0,35.5-16,35.5-35.4c0-19.6-16-35.6-35.5-35.6c-19.5,0-35.5,16-35.5,35.4
		C128.6,220.2,144.6,236.2,164.1,236.2z"/>
	<path class="st1" d="M117.3,129.7c8.3,0,16.1,0,23.9,0c25.2,0,50.5,0,75.7,0c1.6,0,2.5,0.5,3.3,1.8c3.5,5.8,7.2,11.6,10.8,17.3
		c0.4,0.6,0.7,1.2,1.3,2.2c-0.9,0-1.6,0-2.2,0c-32.5,0-64.9,0-97.4,0c-1.5,0-2.4-0.5-3.2-1.7C125.6,142.8,121.5,136.5,117.3,129.7z"
		/>
	<path class="st1" d="M89.9,157.8c4.7,1.7,6.4-1.3,8.2-4.3c3.1-5.2,6.4-10.3,10-15.3c3.2,36.2,6.4,72.3,9.6,108.6
		c-6.7,0-13.1,0-19.9,0C95.2,217.3,92.5,187.8,89.9,157.8z"/>
	<g>
		<path class="st1" d="M110.7,111.9c1-9.5,1.5-10.1,10.8-10.8c0-1.1,0-2.3,0-3.4c0.1-4,3.2-7.1,7-7.1c3.9,0,7,3,7.2,7
			c0,1.2,0,2.3,0,3.5c9.7,0.2,10.8,3.3,10.9,10.9c1.2,0,2.5-0.1,3.7,0c4.6,0.3,7.8,4.8,6.4,9.1c-0.3,1-0.8,1.6-2,1.6
			c-17.4,0-34.7,0-52.1,0c-1.3,0-1.8-0.5-2.2-1.6c-1.3-4.2,1.8-8.7,6.3-9C108.1,111.8,109.3,111.9,110.7,111.9z M125.2,104.9
			c0,2.3,0,4.6,0,6.9c2.4,0,4.6,0,6.8,0c0-2.4,0-4.6,0-6.9C129.7,104.9,127.5,104.9,125.2,104.9z"/>
		<path class="st1" d="M195.9,122.5c-10.8,0-21.4,0-32.2,0c1.3-6.6-1-11.8-6.4-15.7c6.3-4.7,13.2-7.3,20.8-8.7
			c4.3-0.8,6.9,0.9,10,3.5c5.6,4.7,6.7,11,7.5,17.5C195.8,120.1,195.8,121.2,195.9,122.5z"/>
	</g>
	<path class="st1" d="M104.5,129.7c-2.1,3.4-4,6.4-5.9,9.5c-2.2,3.5-4.4,7-6.6,10.5c-0.4,0.6-1.2,1.3-1.8,1.3
		c-7.4,0.1-14.8,0.1-22.4,0.1c0.4-0.7,0.6-1.2,0.9-1.7c3.8-6.1,7.6-12.2,11.4-18.2c0.4-0.7,1.4-1.3,2.2-1.4
		C89.4,129.6,96.7,129.7,104.5,129.7z"/>
	<path class="st1" d="M132.6,56.8c1.5-1.4,2.7-2.5,3.9-3.6c7.8,5.3,7,14.2,2.5,18.7c-2.6,2.6-2.4,6.5,0.2,9.2
		c0.8,0.8,1.7,1.4,2.6,2.2c-1.5,1.5-2.6,2.6-3.8,3.7c-7.8-5.4-7.2-14.1-2.7-18.7c2.7-2.8,2.6-6.6-0.2-9.4
		C134.4,58.1,133.5,57.5,132.6,56.8z"/>
	<path class="st1" d="M154.4,83.4c-1.4,1.4-2.6,2.5-3.7,3.6c-6.8-4.8-7.8-12.6-2.4-18.9c2.2-2.6,2.2-6.4-0.2-8.8
		c-0.8-0.8-1.7-1.6-2.7-2.4c1.4-1.3,2.6-2.4,3.9-3.5c6.7,4.8,7.6,12.5,2.2,18.8c-2.2,2.6-2.2,6.4,0.2,8.8
		C152.5,81.8,153.5,82.5,154.4,83.4z"/>
	<path class="st1" d="M163.5,87c-4.4-3.5-6.9-7.7-5.5-13.3c0.5-1.9,1.6-3.7,2.8-5.2c2.6-3.2,2.6-6.8-0.3-9.7
		c-0.7-0.7-1.5-1.3-2.3-2.1c1.4-1.3,2.6-2.4,3.7-3.5c6.7,4.3,7.8,12.8,2.5,18.7c-2.5,2.7-2.4,6.5,0.2,9.2c0.8,0.8,1.7,1.4,2.6,2.1
		C165.8,84.7,164.7,85.9,163.5,87z"/>
	<path class="st1" d="M164.1,236.2c-19.6,0-35.5-16.1-35.5-35.6c0-19.4,16.1-35.4,35.5-35.4c19.5,0,35.5,16.1,35.5,35.6
		C199.7,220.3,183.6,236.2,164.1,236.2z"/>
	<path class="st1" d="M125.2,104.9c2.3,0,4.5,0,6.8,0c0,2.2,0,4.5,0,6.9c-2.2,0-4.5,0-6.8,0C125.2,109.5,125.2,107.2,125.2,104.9z"
		/>
	<g>
		<polygon class="st0" points="171.9,184.5 162.7,193.6 157,199.2 147.7,208.3 160.7,206.4 166.8,218 171.5,187.2 		"/>
		<polygon class="st0" points="151,187.6 156.5,198.2 161.7,193.1 		"/>
		<polygon class="st0" points="181.7,203.4 170.9,197.8 169.8,205.1 		"/>
	</g>
	<path class="st0" d="M185.3,203.6c0-0.2,0-0.3,0.1-0.5c0-0.2,0-0.3,0-0.5c0-0.2,0-0.4,0-0.6c0-0.1,0-0.3,0-0.4c0-0.2,0-0.5,0-0.7
		c0-0.1,0-0.1,0-0.2c0-0.1,0-0.1,0-0.2c0-0.2,0-0.5,0-0.7c0-0.1,0-0.2,0-0.3c0-0.2,0-0.5-0.1-0.7c0-0.1,0-0.2,0-0.3
		c0-0.2-0.1-0.5-0.1-0.7c0-0.1,0-0.2-0.1-0.4c0-0.2-0.1-0.4-0.1-0.7c0-0.1-0.1-0.3-0.1-0.4c0-0.2-0.1-0.4-0.1-0.6
		c0-0.1-0.1-0.3-0.1-0.4c0-0.2-0.1-0.4-0.2-0.5c0-0.2-0.1-0.3-0.1-0.5c-0.1-0.2-0.1-0.3-0.2-0.5c-0.1-0.2-0.1-0.4-0.2-0.5
		c-0.1-0.1-0.1-0.3-0.2-0.4c-0.1-0.2-0.2-0.4-0.2-0.6c-0.1-0.1-0.1-0.2-0.2-0.4c-0.1-0.2-0.2-0.4-0.3-0.6c-0.1-0.1-0.1-0.2-0.2-0.3
		c-0.1-0.2-0.2-0.4-0.3-0.6c-0.1-0.1-0.1-0.2-0.2-0.3c-0.1-0.2-0.3-0.4-0.4-0.6c-0.1-0.1-0.1-0.2-0.2-0.3c-0.1-0.2-0.3-0.4-0.4-0.6
		c0-0.1-0.1-0.1-0.1-0.2c0,0-0.1-0.1-0.1-0.1c-0.1-0.2-0.3-0.4-0.4-0.5c-0.1-0.1-0.2-0.2-0.3-0.3c-0.1-0.1-0.2-0.3-0.3-0.4
		c-0.1-0.1-0.2-0.3-0.4-0.4c-0.1-0.1-0.2-0.2-0.2-0.3c-0.2-0.2-0.3-0.4-0.5-0.5c0,0-0.1-0.1-0.1-0.1c-0.2-0.2-0.4-0.4-0.6-0.6
		c0,0,0,0,0,0c-1-0.9-2.1-1.7-3.3-2.4c0,0-0.1,0-0.1-0.1c-0.3-0.2-0.5-0.3-0.8-0.4c-0.1-0.1-0.3-0.2-0.4-0.2
		c-0.1-0.1-0.3-0.2-0.4-0.2c-0.3-0.1-0.5-0.2-0.8-0.4c0,0-0.1,0-0.1,0c-1.2-0.5-2.5-0.9-3.9-1.2c0,0,0,0,0,0
		c-0.3-0.1-0.6-0.1-0.9-0.2c-0.1,0-0.1,0-0.2,0c-0.2,0-0.5-0.1-0.7-0.1c-0.1,0-0.2,0-0.4,0c-0.2,0-0.4,0-0.6-0.1c-0.2,0-0.4,0-0.5,0
		c-0.1,0-0.3,0-0.4,0c-0.2,0-0.5,0-0.7,0c-0.1,0-0.1,0-0.2,0c-0.1,0-0.1,0-0.2,0c-0.2,0-0.5,0-0.7,0c-0.1,0-0.2,0-0.3,0
		c-0.2,0-0.5,0-0.7,0.1c-0.1,0-0.2,0-0.3,0c-0.2,0-0.5,0.1-0.7,0.1c-0.1,0-0.2,0-0.4,0.1c-0.2,0-0.4,0.1-0.7,0.1
		c-0.1,0-0.3,0.1-0.4,0.1c-0.2,0-0.4,0.1-0.6,0.1c-0.1,0-0.3,0.1-0.4,0.1c-0.2,0-0.4,0.1-0.5,0.2c-0.2,0-0.3,0.1-0.5,0.1
		c-0.2,0.1-0.3,0.1-0.5,0.2c-0.2,0.1-0.4,0.1-0.5,0.2c-0.1,0.1-0.3,0.1-0.4,0.2c-0.2,0.1-0.4,0.2-0.6,0.2c-0.1,0.1-0.2,0.1-0.4,0.2
		c-0.2,0.1-0.4,0.2-0.6,0.3c-0.1,0.1-0.2,0.1-0.3,0.2c-0.2,0.1-0.4,0.2-0.6,0.3c-0.1,0.1-0.2,0.1-0.3,0.2c-0.2,0.1-0.4,0.3-0.6,0.4
		c-0.1,0.1-0.2,0.1-0.3,0.2c-0.2,0.1-0.4,0.3-0.6,0.4c-0.1,0-0.1,0.1-0.2,0.1c0,0-0.1,0.1-0.1,0.1c-0.2,0.1-0.4,0.3-0.5,0.4
		c-0.1,0.1-0.2,0.2-0.3,0.3c-0.1,0.1-0.3,0.2-0.4,0.3c-0.1,0.1-0.3,0.2-0.4,0.4c-0.1,0.1-0.2,0.2-0.3,0.2c-0.2,0.2-0.4,0.3-0.5,0.5
		c0,0-0.1,0.1-0.1,0.1c-0.2,0.2-0.4,0.4-0.6,0.6c0,0,0,0,0,0c-0.9,1-1.7,2.1-2.4,3.3c0,0,0,0.1-0.1,0.1c-0.2,0.3-0.3,0.5-0.4,0.8
		c-0.1,0.1-0.2,0.3-0.2,0.4c-0.1,0.1-0.2,0.3-0.2,0.4c-0.1,0.3-0.2,0.5-0.4,0.8c0,0,0,0.1,0,0.1c-0.5,1.2-0.9,2.5-1.2,3.9
		c0,0,0,0,0,0c-0.1,0.3-0.1,0.6-0.2,0.9c0,0.1,0,0.1,0,0.2c0,0.2-0.1,0.5-0.1,0.7c0,0.1,0,0.2,0,0.4c0,0.2,0,0.4-0.1,0.6
		c0,0.2,0,0.4,0,0.5c0,0.1,0,0.3,0,0.4c0,0.2,0,0.4,0,0.7c0,0.1,0,0.1,0,0.2c0,0.1,0,0.1,0,0.2c0,0.2,0,0.5,0,0.7c0,0.1,0,0.2,0,0.3
		c0,0.2,0,0.5,0.1,0.7c0,0.1,0,0.2,0,0.3c0,0.2,0.1,0.5,0.1,0.7c0,0.1,0,0.2,0.1,0.4c0,0.2,0.1,0.4,0.1,0.7c0,0.1,0.1,0.3,0.1,0.4
		c0,0.2,0.1,0.4,0.1,0.6c0,0.1,0.1,0.3,0.1,0.4c0,0.2,0.1,0.4,0.2,0.5c0,0.2,0.1,0.3,0.1,0.5c0.1,0.2,0.1,0.3,0.2,0.5
		c0.1,0.2,0.1,0.4,0.2,0.5c0.1,0.1,0.1,0.3,0.2,0.4c0.1,0.2,0.2,0.4,0.2,0.6c0.1,0.1,0.1,0.2,0.2,0.4c0.1,0.2,0.2,0.4,0.3,0.6
		c0.1,0.1,0.1,0.2,0.2,0.3c0.1,0.2,0.2,0.4,0.3,0.6c0.1,0.1,0.1,0.2,0.2,0.3c0.1,0.2,0.3,0.4,0.4,0.6c0.1,0.1,0.1,0.2,0.2,0.3
		c0.1,0.2,0.3,0.4,0.4,0.6c0,0.1,0.1,0.1,0.1,0.2c0,0.1,0.1,0.1,0.1,0.2c0.1,0.1,0.2,0.3,0.3,0.4c0.1,0.1,0.2,0.3,0.3,0.4
		c0.1,0.1,0.2,0.2,0.2,0.3c0.2,0.2,0.3,0.4,0.5,0.6c0,0,0.1,0.1,0.1,0.1c0.9,1,1.9,1.9,3,2.7c0,0,0,0,0,0c0.3,0.2,0.5,0.4,0.8,0.5
		c0,0,0.1,0,0.1,0.1c0.3,0.2,0.5,0.3,0.8,0.5c0,0,0.1,0,0.1,0c0.3,0.2,0.6,0.3,0.8,0.5c0.1,0,0.2,0.1,0.3,0.1
		c0.2,0.1,0.4,0.2,0.5,0.3c0.2,0.1,0.3,0.2,0.5,0.2c0.1,0,0.2,0.1,0.3,0.1c0.2,0.1,0.4,0.2,0.6,0.3c0.1,0,0.1,0,0.2,0.1
		c2.4,1,5.1,1.5,7.8,1.5c3.4,0,6.6-0.8,9.5-2.2c0,0,0.1,0,0.1-0.1c0.3-0.1,0.5-0.3,0.8-0.4c0.1,0,0.1-0.1,0.2-0.1
		c0.3-0.2,0.5-0.3,0.8-0.5c0,0,0.1,0,0.1-0.1c0.3-0.2,0.6-0.4,0.9-0.6c0,0,0,0,0.1,0c0.1,0,0.1-0.1,0.2-0.1c0.1-0.1,0.3-0.2,0.4-0.3
		l0,0c4.2-3.2,6.9-7.7,7.9-12.5l0,0c0.1-0.2,0.1-0.5,0.1-0.7c0-0.1,0-0.2,0-0.2C185.2,204,185.3,203.8,185.3,203.6z M174.6,215.1
		c-0.1,0-0.1,0.1-0.2,0.1c-0.2,0.2-0.5,0.3-0.7,0.5c0,0,0,0-0.1,0c-0.2,0.1-0.5,0.3-0.7,0.4c-0.1,0-0.1,0.1-0.2,0.1
		c-0.2,0.1-0.4,0.2-0.7,0.4c0,0-0.1,0-0.1,0c-0.3,0.1-0.5,0.3-0.8,0.4l0,0c-2.2,0.9-4.6,1.5-7.1,1.5c-1.8,0-3.6-0.3-5.3-0.8l0,0
		c-0.4-0.1-0.8-0.3-1.3-0.4c0,0-0.1,0-0.1-0.1c-0.2-0.1-0.3-0.1-0.5-0.2c-0.1,0-0.2-0.1-0.2-0.1c-0.1-0.1-0.3-0.1-0.4-0.2
		c-0.2-0.1-0.3-0.2-0.5-0.2c-0.1,0-0.1-0.1-0.2-0.1c-0.2-0.1-0.5-0.3-0.7-0.4c0,0,0,0-0.1,0c-0.2-0.1-0.4-0.3-0.6-0.4c0,0,0,0-0.1,0
		c-0.2-0.1-0.4-0.3-0.6-0.5c0,0,0,0,0,0c-0.9-0.7-1.7-1.4-2.5-2.3c0,0-0.1-0.1-0.1-0.1c-0.1-0.2-0.3-0.3-0.4-0.5
		c-0.1-0.1-0.1-0.2-0.2-0.2c-0.1-0.1-0.2-0.2-0.3-0.4c-0.1-0.1-0.2-0.2-0.2-0.3c-0.1-0.1-0.1-0.2-0.2-0.3c-0.1-0.2-0.2-0.3-0.3-0.5
		c0-0.1-0.1-0.2-0.1-0.2c-0.1-0.2-0.2-0.4-0.3-0.5c0-0.1-0.1-0.2-0.1-0.2c-0.1-0.2-0.2-0.3-0.3-0.5c0-0.1-0.1-0.2-0.1-0.3
		c-0.1-0.2-0.2-0.3-0.2-0.5c0-0.1-0.1-0.2-0.1-0.3c-0.1-0.2-0.1-0.3-0.2-0.5c0-0.1-0.1-0.2-0.1-0.4c-0.1-0.1-0.1-0.3-0.2-0.4
		c0-0.1-0.1-0.3-0.1-0.4c0-0.1-0.1-0.3-0.1-0.4c0-0.2-0.1-0.3-0.1-0.5c0-0.1-0.1-0.2-0.1-0.4c0-0.2-0.1-0.3-0.1-0.5
		c0-0.1,0-0.2-0.1-0.3c0-0.2-0.1-0.4-0.1-0.6c0-0.1,0-0.2,0-0.3c0-0.2-0.1-0.4-0.1-0.6c0-0.1,0-0.2,0-0.3c0-0.2,0-0.4,0-0.6
		c0-0.1,0-0.2,0-0.3c0-0.2,0-0.4,0-0.6c0-0.1,0-0.2,0-0.3c0-0.2,0-0.4,0-0.6c0-0.1,0-0.2,0-0.4c0-0.1,0-0.3,0-0.4c0-0.2,0-0.3,0-0.5
		c0-0.1,0-0.2,0-0.3c0-0.2,0.1-0.4,0.1-0.6c0-0.1,0-0.1,0-0.2c0-0.2,0.1-0.5,0.1-0.7c0,0,0,0,0,0c0.2-1.1,0.6-2.2,1-3.2
		c0,0,0-0.1,0-0.1c0.1-0.2,0.2-0.4,0.3-0.7c0.1-0.1,0.1-0.2,0.2-0.4c0.1-0.1,0.1-0.2,0.2-0.4c0.1-0.2,0.2-0.4,0.4-0.6
		c0,0,0-0.1,0-0.1c0.6-1,1.3-1.9,2-2.7c0,0,0,0,0,0c0.2-0.2,0.3-0.4,0.5-0.5c0,0,0.1-0.1,0.1-0.1c0.1-0.1,0.3-0.3,0.4-0.4
		c0.1-0.1,0.1-0.1,0.2-0.2c0.1-0.1,0.2-0.2,0.4-0.3c0.1-0.1,0.2-0.2,0.3-0.3c0.1-0.1,0.2-0.2,0.3-0.2c0.1-0.1,0.3-0.2,0.4-0.3
		c0.1-0.1,0.2-0.1,0.2-0.2c0.2-0.1,0.3-0.2,0.5-0.3c0.1,0,0.2-0.1,0.2-0.1c0.2-0.1,0.4-0.2,0.5-0.3c0.1,0,0.2-0.1,0.2-0.1
		c0.2-0.1,0.3-0.2,0.5-0.3c0.1,0,0.2-0.1,0.3-0.1c0.2-0.1,0.3-0.2,0.5-0.2c0.1,0,0.2-0.1,0.3-0.1c0.2-0.1,0.3-0.1,0.5-0.2
		c0.1,0,0.2-0.1,0.4-0.1c0.1-0.1,0.3-0.1,0.4-0.2c0.1,0,0.3-0.1,0.4-0.1c0.1,0,0.3-0.1,0.4-0.1c0.2,0,0.3-0.1,0.5-0.1
		c0.1,0,0.2-0.1,0.4-0.1c0.2,0,0.3-0.1,0.5-0.1c0.1,0,0.2,0,0.3-0.1c0.2,0,0.4-0.1,0.6-0.1c0.1,0,0.2,0,0.3,0c0.2,0,0.4-0.1,0.6-0.1
		c0.1,0,0.2,0,0.3,0c0.2,0,0.4,0,0.6,0c0.1,0,0.2,0,0.3,0c0.2,0,0.4,0,0.6,0c0.1,0,0.2,0,0.3,0c0.2,0,0.4,0,0.6,0c0.1,0,0.2,0,0.4,0
		c0.2,0,0.3,0,0.4,0c0.2,0,0.3,0,0.5,0c0.1,0,0.2,0,0.3,0c0.2,0,0.4,0.1,0.6,0.1c0.1,0,0.1,0,0.2,0c0.2,0,0.5,0.1,0.7,0.1
		c0,0,0,0,0,0c1.1,0.2,2.2,0.6,3.2,1c0,0,0.1,0,0.1,0c0.2,0.1,0.4,0.2,0.7,0.3c0.1,0.1,0.2,0.1,0.4,0.2c0.1,0.1,0.2,0.1,0.4,0.2
		c0.2,0.1,0.4,0.2,0.6,0.4c0,0,0.1,0,0.1,0c1,0.6,1.9,1.3,2.7,2c0,0,0,0,0,0c0.2,0.2,0.4,0.3,0.5,0.5c0,0,0.1,0.1,0.1,0.1
		c0.1,0.1,0.3,0.3,0.4,0.4c0.1,0.1,0.1,0.1,0.2,0.2c0.1,0.1,0.2,0.2,0.3,0.4c0.1,0.1,0.2,0.2,0.3,0.3c0.1,0.1,0.2,0.2,0.2,0.3
		c0.1,0.1,0.2,0.3,0.3,0.5c0.1,0.1,0.1,0.2,0.2,0.2c0.1,0.2,0.2,0.3,0.3,0.5c0,0.1,0.1,0.1,0.1,0.2c0.1,0.2,0.2,0.4,0.3,0.5
		c0,0.1,0.1,0.2,0.1,0.2c0.1,0.2,0.2,0.4,0.3,0.5c0,0.1,0.1,0.2,0.1,0.3c0.1,0.2,0.2,0.3,0.2,0.5c0,0.1,0.1,0.2,0.1,0.3
		c0.1,0.2,0.1,0.3,0.2,0.5c0,0.1,0.1,0.2,0.1,0.3c0.1,0.1,0.1,0.3,0.2,0.4c0,0.1,0.1,0.3,0.1,0.4c0,0.1,0.1,0.3,0.1,0.4
		c0,0.1,0.1,0.3,0.1,0.4c0,0.1,0.1,0.2,0.1,0.4c0,0.2,0.1,0.3,0.1,0.5c0,0.1,0,0.2,0.1,0.3c0,0.2,0.1,0.4,0.1,0.5c0,0.1,0,0.2,0,0.3
		c0,0.2,0.1,0.4,0.1,0.6c0,0.1,0,0.2,0,0.3c0,0.2,0,0.4,0,0.6c0,0.1,0,0.2,0,0.3c0,0.2,0,0.4,0,0.6c0,0.1,0,0.2,0,0.3
		c0,0.2,0,0.4,0,0.6c0,0.1,0,0.2,0,0.3c0,0.2,0,0.3,0,0.5c0,0.1,0,0.3,0,0.4c0,0.1,0,0.3-0.1,0.4c0,0.2,0,0.3-0.1,0.5
		c0,0.1,0,0.1,0,0.2C180.9,208.2,178.5,212.3,174.6,215.1z"/>
	<circle class="st0" cx="164.2" cy="200.7" r="1.2"/>
</g>
</svg>
