<?xml version="1.0" encoding="utf-8"?>
<!-- Generator: Adobe Illustrator 22.0.0, SVG Export Plug-In . SVG Version: 6.00 Build 0)  -->
<svg version="1.1" id="Layer_1" xmlns="http://www.w3.org/2000/svg" xmlns:xlink="http://www.w3.org/1999/xlink" x="0px" y="0px"
	 viewBox="0 0 300 300" style="enable-background:new 0 0 300 300;" xml:space="preserve">
<style type="text/css">
	.st0{fill:#FFFFFF;}
	.st1{fill:#2D2A26;}
	.st2{fill:none;stroke:#FFFFFF;stroke-width:2.7892;stroke-miterlimit:10;}
	.st3{clip-path:url(#SVGID_2_);}
	.st4{fill:#2D2A26;stroke:#FFFFFF;stroke-width:2;stroke-miterlimit:10;}
</style>
<rect x="-0.7" class="st0" width="300" height="300"/>
<g>
	<path class="st1" d="M215.4,216.5H89.1c-0.7,0-1.2,0.6-1.2,1.3v9.5c0,8.4,10.5,15.3,23.4,15.3h82c12.9,0,23.4-6.9,23.4-15.3v-9.5
		C216.6,217.1,216.1,216.5,215.4,216.5z"/>
	<path class="st1" d="M216.8,194.1h-129c-2.9,0-5.2,2.4-5.2,5.2v8.8c0,2.9,2.4,5.2,5.2,5.2h129c2.9,0,5.2-2.4,5.2-5.2v-8.8
		C222,196.4,219.6,194.1,216.8,194.1z"/>
	<g>
		<path class="st1" d="M216.3,184H88.1c-0.8,0-1.6,0.4-2.1,1c-0.5,0.6-0.7,1.4-0.6,2.2l0.7,3.7c0.2,0.8,0.5,1.2,3.9,3.2
			c1.6,1,3.3,2,3.7,2.2l0.5,0.3c19.1,10.5,21.4,10.5,22.3,10.5c1,0,1.5-0.5,1.7-0.8l0.1-0.2l0.1-0.2c0,0,1.6-4.1,6.6-7.2
			c6.8-4.2,14.8-6.5,23.1-6.5h68.3c1.5,0,2.7-1.2,2.7-2.7v-2.8C219.1,185.3,217.8,184,216.3,184z"/>
		<path class="st0" d="M216.3,182.5H88.1c-1.3,0-2.5,0.6-3.3,1.6c-0.8,1-1.2,2.3-0.9,3.5l0.7,3.7c0.3,1.6,1.3,2.3,4.6,4.3
			c1.7,1,3.4,2,3.8,2.2c0.1,0.1,0.3,0.2,0.5,0.3c19.5,10.7,21.9,10.7,23,10.7c1.2,0,2.2-0.5,2.9-1.3l0.3-0.3l0.2-0.4
			c0.1-0.2,1.6-3.7,6-6.5c6.6-4.1,14.2-6.2,22.2-6.2h68.3c2.4,0,4.3-1.9,4.3-4.3v-2.8C220.6,184.4,218.7,182.5,216.3,182.5z
			 M217.5,189.5c0,0.6-0.5,1.2-1.2,1.2H148c-8.5,0-16.8,2.3-23.9,6.7c-5.5,3.5-7.3,8-7.3,8c-0.1,0.1-0.2,0.1-0.4,0.1
			c-2.9,0-20.2-9.6-22-10.6c-0.8-0.4-6.7-3.8-6.8-4.3l-0.7-3.7c-0.1-0.7,0.4-1.4,1.1-1.4h128.2c0.6,0,1.2,0.5,1.2,1.2V189.5z"/>
	</g>
	<path class="st1" d="M222.9,176c-1.2-2-0.9-4.4-2.5-6.1c-4.4-4.5-6.4,1.6-10.1,2.1c-3.9,0.4-7-2.8-10.7-2.8c-2.5,0-3.5,2.9-5.8,2.6
		c-1.8-0.3-3.4-2.5-5-3.2c-4.6-2.1-7.3,3.3-11.6,2.4c-2.8-0.6-3.9-3.6-7-2.9c-2.4,0.5-3.4,3.2-5.7,4c-7.2,2.7-10.9-9.2-15.6,1.5
		c-4.9-1.4-10.5-6.5-16-4.7c-3.1,1-3.8,4.3-7,3.7c-2.1-0.4-2.9-2.7-4.7-3.3c-3.3-1.2-3.6-1.5-6.2,0.3c-10,6.8-8-0.8-13.5-2.2
		c-1.2-0.3-4.9,4-6.9,5.1c-1.9,1-3.1-2.6-4.6-3c-2.9-1-6.4,1-9.2,3.6c-2.3,2.2-2.4,4.6,0.8,5c0,2.6-4.5,4.5-1.8,8.5
		c4.1,1,5.2-5.3,9.2-4.9c1.6,0.1,3.1,1.8,4.7,1.8c2.8,0,4.1-2.3,6.9-1.8c3,0.5,3.3,3.2,6.9,2.9c2.5-0.2,4.1-2.2,6.9-1.9
		c2.3,0.2,3.3,1.8,5.9,1.6c1.6-0.2,2.9-2.4,4.8-2.6c1.8-0.2,3.5,1.4,5.3,1.5c2.6,0.2,3.2-0.8,5.9-1.5c5.7-1.6,9.4,3.1,15.2,2
		c3.6-0.6,7.5-3.1,11.1-2.2c2,0.5,3.2,2.9,5.5,3.2c2,0.3,4-1.1,5.9-1.4c2.6-0.4,5.3,0.8,7.6,0.4c3.3-0.6,4.9-2.1,8.5-2
		c3.3,0.1,5.8,1.7,9.1,1.5c3.7-0.1,5.3-1.7,8.9-0.5c2.6,0.8,6.3,4.4,9.1-0.5c1.3,4.5,7.7,1.5,8.4-2.4
		C226.2,175.2,224.3,178.2,222.9,176z"/>
	<g>
		<path class="st1" d="M152.3,124c-35.6,0-64.5,19.2-64.5,42.9h129C216.8,143.2,187.9,124,152.3,124z"/>
		<path class="st0" d="M101.4,155.1c-0.8,0.7-0.8,3.6,0,4.5c0.9,1,1.8-1.7,1.7-3C103,155,102,154.5,101.4,155.1z"/>
		<path class="st0" d="M107.1,143.1c-1.3-0.3-1.9,0.5-1.6,1.3c0.4,0.9,2.7,1.6,3.6,1C110.2,144.7,108.2,143.3,107.1,143.1z"/>
		<path class="st0" d="M116.3,157.6c-1-0.7-2-0.3-2,0.6c0,1,1.9,2.5,2.9,2.4C118.5,160.3,117.2,158.2,116.3,157.6z"/>
		<path class="st0" d="M120.8,141.2c-1.2,0.4-1.4,1.4-0.8,1.9c0.8,0.6,3.1,0.1,3.6-0.8C124.3,141.2,121.9,140.9,120.8,141.2z"/>
		<path class="st0" d="M129.4,132.7c-1,0.3-1.8,2.6-1.3,3.5c0.6,1.1,2.1-0.7,2.5-1.8C130.9,133.1,130.1,132.4,129.4,132.7z"/>
		<path class="st0" d="M124.1,149.8c-1,0.3-1.8,2.6-1.3,3.5c0.6,1.1,2.1-0.7,2.5-1.8C125.6,150.3,124.8,149.6,124.1,149.8z"/>
		<path class="st0" d="M144.1,136.1c-1-0.9-1.9-0.5-2,0.3c-0.1,1,1.6,2.7,2.6,2.7C146,139.1,144.9,136.9,144.1,136.1z"/>
		<path class="st0" d="M151.9,129.1c-1.3,0-1.8,0.9-1.3,1.6c0.6,0.8,3,1,3.7,0.3C155.2,130.1,153,129.1,151.9,129.1z"/>
		<path class="st0" d="M162.5,132.4c-0.6,0.9,0.3,3.1,1.2,3.5c1.2,0.5,1.2-1.9,0.7-3C164,131.8,163,131.7,162.5,132.4z"/>
		<path class="st0" d="M194.2,143c-0.9-0.5-3.1,0.6-3.4,1.6c-0.4,1.2,2,1,3,0.4C194.9,144.4,194.9,143.4,194.2,143z"/>
		<path class="st0" d="M176.2,132.4c-1.1-0.7-2-0.1-1.9,0.7c0,1,2,2.4,3,2.2C178.5,135,177.1,133,176.2,132.4z"/>
		<path class="st0" d="M189,153.9c-0.9,0.5-1.1,2.9-0.4,3.7c0.8,1,1.9-1.3,1.9-2.4C190.6,153.9,189.7,153.4,189,153.9z"/>
		<path class="st0" d="M180,147.8c-1.2,0.5,0.6,2.2,1.6,2.6c1.2,0.5,2-0.2,1.8-1C183.2,148.3,181,147.4,180,147.8z"/>
		<path class="st0" d="M173.9,156.7c-0.9-0.6-3.1,0.3-3.5,1.2c-0.5,1.2,1.9,1.2,3,0.8C174.5,158.1,174.6,157.1,173.9,156.7z"/>
		<path class="st0" d="M155.4,142.1c-1,0.8-0.8,1.8-0.1,2.1c1,0.3,3-1,3.1-2C158.6,140.8,156.3,141.4,155.4,142.1z"/>
		<path class="st0" d="M171.9,142.4c-1-0.1-2.6,1.8-2.5,2.8c0.1,1.3,2.3,0.1,3-0.8C173.2,143.4,172.7,142.5,171.9,142.4z"/>
		<path class="st0" d="M155.3,154.6c-1,0.3-1.8,2.6-1.3,3.5c0.6,1.1,2.1-0.7,2.5-1.8C156.8,155.1,156.1,154.4,155.3,154.6z"/>
		<path class="st0" d="M139,158.5c-1.3,0.1-0.1,2.3,0.7,3c1,0.8,1.9,0.4,2-0.4C141.8,160,140,158.4,139,158.5z"/>
		<path class="st0" d="M134.8,146.8c-0.5,0.9,0.6,3.1,1.6,3.4c1.2,0.4,1-2,0.5-3C136.2,146,135.2,146.1,134.8,146.8z"/>
		<path class="st0" d="M145.1,148.9c-0.7,1,1.7,1.5,2.8,1.3c1.3-0.3,1.5-1.3,0.9-1.8C148.1,147.7,145.7,148.1,145.1,148.9z"/>
		<path class="st0" d="M200.5,154.8c0.1,1.3,1.1,1.7,1.7,1.2c0.8-0.6,0.7-3,0-3.7C201.2,151.4,200.5,153.7,200.5,154.8z"/>
	</g>
</g>
</svg>
