<?xml version="1.0" encoding="utf-8"?>
<!-- Generator: Adobe Illustrator 22.0.0, SVG Export Plug-In . SVG Version: 6.00 Build 0)  -->
<svg version="1.1" id="Layer_1" xmlns="http://www.w3.org/2000/svg" xmlns:xlink="http://www.w3.org/1999/xlink" x="0px" y="0px"
	 viewBox="0 0 300 300" style="enable-background:new 0 0 300 300;" xml:space="preserve">
<style type="text/css">
	.st0{fill:#FFFFFF;}
	.st1{fill:#2D2A26;}
	.st2{fill:none;stroke:#FFFFFF;stroke-width:2.7892;stroke-miterlimit:10;}
	.st3{clip-path:url(#SVGID_2_);}
	.st4{fill:#2D2A26;stroke:#FFFFFF;stroke-width:2;stroke-miterlimit:10;}
</style>
<g>
	<path class="st1" d="M58.9,161.5c0,21.6,9.6,44.8,25.3,63.1c16.5,19.2,39.8,19.9,65.6,19.9c25.8,0,49-0.6,65.6-19.9
		c15.7-18.2,25.3-41.5,25.3-63.1H58.9z"/>
	<line class="st2" x1="59.9" y1="173.9" x2="239.6" y2="173.9"/>
	<g>
		<defs>
			<rect id="SVGID_1_" x="55.9" y="110.8" width="188.1" height="48.4"/>
		</defs>
		<clipPath id="SVGID_2_">
			<use xlink:href="#SVGID_1_"  style="overflow:visible;"/>
		</clipPath>
		<g class="st3">
			<path class="st1" d="M93.2,144.8h30.1c5.5,0,10.7-2.2,15.7-4.4c5.4-2.3,10.9-4.7,16.6-4.3c5.7,0.4,8.2,3,10.8,5.6
				c2.2,2.3,4.7,4.8,8.7,4.8c2.6,0,6-0.8,9.6-1.7c3-0.7,8.7-2.1,10-1.6c1.4,0.9,2.5,2.7,3.9,4.7c1.5,2.2,3.2,4.7,5.7,7.1
				c3.3,3.1,9.3,4.9,14.5,6.5c2.3,0.7,5.9,1.8,6.7,2.4c1.3,1.1,6.5,6.3,12,12h11.1c-6.1-6.2-15.6-15.9-17.8-17.8
				c-2-1.7-5.3-2.7-9.6-3.9c-4.1-1.2-9.3-2.8-11.2-4.6c-1.9-1.8-3.2-3.8-4.5-5.7c-1.7-2.5-3.4-5-6.1-6.9c-3.9-2.6-10.1-1.1-16.7,0.5
				c-2.9,0.7-5.9,1.4-7.6,1.4c-0.5,0-1.8-1.3-2.8-2.3c-2.9-3-7.2-7.5-16.2-8.1c-7.8-0.6-14.6,2.4-20.6,5c-4.4,1.9-8.6,3.7-12.3,3.7
				H93.2c-11,0-28.5,25-37.3,38.8h9.6C77.2,158.3,89,144.8,93.2,144.8z"/>
			<path class="st1" d="M109.2,149c-2.4-0.5-5.2-0.7-8.1,0.8c-2.7,1.7-3.8,4-4.6,6.2c-0.7,2.2-1,4.5-0.6,6.9c1.7-1.7,3-3.4,4.4-5
				c1.3-1.5,2.6-3,3.7-3.6c1-0.6,2.9-1,4.9-1.2c2-0.2,4.2-0.4,6.7-0.7C113.8,150.7,111.6,149.6,109.2,149z"/>
			<path class="st1" d="M101.6,164.5c-2.1,1.4-3.5,3.2-4.5,5.2c-0.8,1.9-1.2,4-0.7,6c0,0.1,0,0.3,0.1,0.4c0.1-0.2,0.3-0.3,0.4-0.4
				c1.3-1.5,2.5-2.7,3.7-3.8c1.3-1.2,2.7-2.4,3.9-3.2c1-0.6,2.4-1.1,4.2-1.3c1.8-0.2,3.7-0.3,6-0.4c-1.3-1.9-3.3-3.1-5.6-3.7
				C106.9,162.9,104.1,163,101.6,164.5z"/>
			<path class="st1" d="M153.8,147.4c1.8,0.2,3.8,0.6,6.1,0.9c-1-2.1-2.7-3.6-4.7-4.7c-2-1.1-4.6-1.8-7.5-1.1
				c-2.5,0.7-4.3,1.9-6,3.5c-1.6,1.5-2.9,3.3-3.5,5.5c2.2-0.7,4.1-1.4,5.9-2.2c1.8-0.7,3.6-1.4,5-1.8
				C150.3,147.2,152,147.2,153.8,147.4z"/>
			<path class="st1" d="M130.6,154.5c-0.7,0.1-1.4,0.2-2,0.4c-0.3,0.1-0.7,0.2-1.1,0.4l-0.4,0.2l-0.3,0.1l-0.2,0.1
				c-1.2,0.6-2.2,1.3-3.2,2.2c-1.8,1.8-3.2,4.1-3.1,6.6c1.9-1.5,3.7-2.5,5.6-3.3c0.9-0.4,1.8-0.7,2.7-1l0.2-0.1c-0.1,0,0.1,0,0.1,0
				l0.4-0.1l0.5-0.1c0.4-0.1,0.9-0.1,1.3-0.2c1.9-0.2,4-0.1,6.1-0.1c2.2,0,4.5,0,7-0.2c-1.8-1.8-3.9-2.9-6.2-3.8
				C135.7,154.7,133.3,154.2,130.6,154.5z"/>
			<path class="st1" d="M79.2,166.7c-0.3,0.3-0.8,0.8-1,1c-0.3,0.4-0.6,0.8-0.9,1.2c-0.5,0.8-0.8,1.5-1.1,2.3
				c-0.5,1.5-0.9,2.9-0.9,4.6c0,0.1,0,0.3,0,0.4c0.3-0.1,0.5-0.3,0.7-0.4c1.3-0.8,2.5-1.6,3.5-2.5l1.7-1.5c0.3-0.2,0.5-0.4,0.7-0.6
				c0.4-0.3,0.5-0.3,0.8-0.6c1-0.8,2.1-1.5,3.2-2.3c1.2-0.8,2.5-1.7,4.1-2.9c-1.7-1.2-3.7-1.4-5.6-1.2
				C82.6,164.5,80.7,165.4,79.2,166.7z"/>
		</g>
	</g>
</g>
</svg>
