<?xml version="1.0" encoding="utf-8"?>
<!-- Generator: Adobe Illustrator 22.0.0, SVG Export Plug-In . SVG Version: 6.00 Build 0)  -->
<svg version="1.1" id="Layer_1" xmlns="http://www.w3.org/2000/svg" xmlns:xlink="http://www.w3.org/1999/xlink" x="0px" y="0px"
	 viewBox="0 0 300 300" style="enable-background:new 0 0 300 300;" xml:space="preserve">
<style type="text/css">
	.st0{fill:#2D2A26;}
	.st1{fill:none;stroke:#FFFFFF;stroke-width:2.7892;stroke-miterlimit:10;}
	.st2{clip-path:url(#SVGID_2_);}
	.st3{fill:#FFFFFF;}
	.st4{fill:#2D2A26;stroke:#FFFFFF;stroke-width:2;stroke-miterlimit:10;}
	.st5{fill:#2D2A26;stroke:#FFFFFF;stroke-miterlimit:10;}
</style>
<g>
	<g>
		<g>
			<g>
				<path class="st0" d="M221.4,133h-1.2H134h-1.2c-1.4,0-2.6,1.2-2.6,2.6v6.1c0,1.4,1.2,2.6,2.6,2.6h4.5h1.1h1.1h75.2h1.1h1.1h4.5
					c1.4,0,2.6-1.2,2.6-2.6v-6.1C224,134.1,222.8,133,221.4,133z"/>
				<path class="st0" d="M218,125.8c0-3.4-2.8-6.3-6.3-6.3h-69.3c-3.4,0-6.3,2.8-6.3,6.3v5H218V125.8z"/>
			</g>
		</g>
		<polygon class="st0" points="218,147 166,147 145.8,243.6 205.5,243.6 		"/>
		<path class="st0" d="M201.7,102.5l-4.8-3.9c-0.7,1-1.3,2.1-1.8,3.3l5.5,2.9C200.8,104,201.2,103.3,201.7,102.5z"/>
		<polygon class="st0" points="237.5,82.6 234.8,77.1 207.2,90.8 210.1,96.1 		"/>
		<path class="st0" d="M207,97.7l1.2-0.6l-3-5.4l-0.9,0.5c-0.7,0.3-1.3,0.7-1.9,1.1l4,4.8C206.7,97.9,206.8,97.8,207,97.7z"/>
		<path class="st0" d="M204.6,99.2l-4-4.7c-0.9,0.7-1.7,1.5-2.5,2.4l4.8,3.8C203.4,100.2,204,99.7,204.6,99.2z"/>
		<path class="st0" d="M199.7,106.9l-5.5-2.9c-1.2,3.5-2.7,7.8-4.5,12.7h6.5C197.7,112.8,198.9,109.4,199.7,106.9z"/>
	</g>
	<path class="st5" d="M169.6,168.7c-0.3-0.3-0.7-0.5-1.1-0.5h-3.3l2-22.7c0.1-0.8-0.5-1.5-1.3-1.5l-10-1c-0.4,0-0.8,0.1-1.1,0.3
		c-0.3,0.2-0.5,0.6-0.5,1l-0.2,2c-0.1,0-0.1,0-0.1,0l-10.1-0.5c-0.8-0.1-1.4,0.6-1.5,1.3l-0.4,6.9l-2.8,0l-0.1-12.8
		c0-0.8-0.6-1.4-1.4-1.4l-10.1,0c-0.4,0-0.7,0.2-1,0.4c-0.3,0.3-0.4,0.6-0.4,1l0,4.9l-10.5,0.6c-0.4,0-0.7,0.2-1,0.5
		c-0.3,0.3-0.4,0.7-0.4,1l0.8,11.8L111,160l0.1-11.6c0-0.8-0.6-1.4-1.4-1.4l-10.1-0.2c-0.4,0-0.7,0.1-1,0.4c-0.3,0.3-0.4,0.6-0.4,1
		l-0.3,30c-0.2-0.1-0.3-0.3-0.5-0.4l-3.9-32.7c0-0.4-0.3-0.7-0.6-1c-0.3-0.2-0.7-0.3-1.1-0.3l-10,1.7c-0.7,0.1-1.3,0.8-1.2,1.6
		l2.5,21.1h-3.7c-0.4,0-0.8,0.2-1.1,0.5c-0.3,0.3-0.4,0.7-0.3,1.1l9.5,74.1c0.1,0.7,0.7,1.2,1.4,1.2h70.2c0.7,0,1.3-0.5,1.4-1.2
		l9.5-74.1C170,169.4,169.9,169,169.6,168.7z M90.3,169c-0.2-0.5-0.7-0.8-1.3-0.8h-3l-2.4-20.1l7.2-1.2l3.3,27.6
		C92.6,172.8,91.3,171,90.3,169z M136.4,142.7l0.1,11.3l-0.8,0c-0.4,0-0.7,0.2-1,0.4c-0.3,0.3-0.4,0.6-0.4,1l0.4,30.4
		c-1.7,0.4-3.4,0.7-5.2,1l-0.2-44.2L136.4,142.7z M126.4,149l0.2,38.1c-0.9,0-1.7,0.1-2.6,0.1c-1.9,0-3.8-0.1-5.7-0.4l0.3-25.2
		c0-0.4-0.1-0.7-0.4-1c0,0,0,0,0,0l-0.7-11L126.4,149z M108.5,162.8l7.2,0.1l-0.3,23.4c-2.6-0.5-5.1-1.2-7.4-2.2
		c0.1-0.2,0.2-0.4,0.2-0.7L108.5,162.8z M105.7,161.4l-0.3,21.6c-1.6-0.8-3.2-1.7-4.7-2.7l0.3-30.6l7.2,0.1l-0.1,10.2l-1,0
		c-0.4,0-0.7,0.1-1,0.4C105.8,160.6,105.7,161,105.7,161.4z M137.4,185.1l-0.3-28.2l7.2,0l0.3,25.1
		C142.4,183.2,140,184.2,137.4,185.1z M151.8,176.6c-1.3,1.3-2.8,2.5-4.4,3.6l-0.3-24.8c0-0.8-0.6-1.4-1.4-1.4c0,0,0,0,0,0l-0.7,0
		l0.3-5.3l8.7,0.5c0,0,0,0,0.1,0L151.8,176.6z M162.4,168.2h-3.5c-0.5,0-1,0.3-1.3,0.8c-0.8,1.4-1.7,2.8-2.7,4.1l2.2-27.1l7.2,0.7
		L162.4,168.2z"/>
</g>
</svg>
